<svg id="圖層_1" data-name="圖層 1" xmlns="http://www.w3.org/2000/svg" viewBox="0 0 566.93 566.93"><defs><style>.cls-1{fill:#f9f9f9;}</style></defs><path class="cls-1" d="M283.55,189.62l0,.08,201.71,4.35,0,0,28.17.61q-1.93-5-4.06-9.85l-19.61.42Z"/><path class="cls-1" d="M483.46,197.53l-201.19,4.32v0c-8.67.22-17.17.82-24.78,1-79.21,2-42.72,67.48-42.72,67.48l25,41.63c53.07,104.84-90.81,114.25-158,113.2A246.15,246.15,0,0,0,283.46,529.92c136.12,0,246.46-110.34,246.46-246.46a245.91,245.91,0,0,0-15.67-86.62l-30.78.66Z"/><path class="cls-1" d="M201.71,341.33c-16.74-19.25-40.27-58.45-40.27-58.45C101,163,262.26,143.07,262.26,143.07l12.94-1.35c68.4,1.47,142.92,2.35,212.46,3.7A246.19,246.19,0,0,0,283.46,37C147.35,37,37,147.35,37,283.46A245.29,245.29,0,0,0,74,413.31C270.81,415.41,201.71,341.33,201.71,341.33Z"/><path class="cls-1" d="M302.08,152.72l-.42.84,193.8,4.17q-2.73-4.57-5.64-9Z"/><path class="cls-1" d="M289.73,177.32l-.16.32L491.38,182l16.9.37c-1.46-3.25-3-6.45-4.59-9.62l-7.67.16Z"/><path class="cls-1" d="M295.61,165.6,497.53,170l4.79.1c-1.64-3.15-3.34-6.28-5.1-9.35L295.9,165Z"/><circle class="cls-1" cx="28.41" cy="403.98" r="18.29" transform="translate(-374.9 367.32) rotate(-80.78)"/></svg>