<?xml version="1.0" encoding="utf-8"?>
<!-- Generator: Adobe Illustrator 25.0.1, SVG Export Plug-In . SVG Version: 6.00 Build 0)  -->
<svg version="1.1" id="圖層_4" xmlns="http://www.w3.org/2000/svg" xmlns:xlink="http://www.w3.org/1999/xlink" x="0px" y="0px"
	 viewBox="0 0 441.4 126" style="enable-background:new 0 0 441.4 126;" xml:space="preserve">
<style type="text/css">
	.st0{fill:#F9F9F9;}
</style>
<path class="st0" d="M109.5,42.9l-46.5,1l0,0c-2,0-4,0.2-5.7,0.2c-18.3,0.5-9.9,15.6-9.9,15.6l5.8,9.6c12.3,24.2-21,26.4-36.5,26.2
	c18.1,25.8,53.6,32,79.4,13.9c21.3-14.9,29.7-42.4,20.6-66.7L109.5,42.9L109.5,42.9z"/>
<path class="st0" d="M63.3,41L63.3,41l46.7,1l0,0l6.5,0.1c-0.3-0.8-0.6-1.5-0.9-2.3L111,40L63.3,41z"/>
<path class="st0" d="M44.4,76.1C40.5,71.7,35,62.6,35,62.6C21,34.9,58.4,30.3,58.4,30.3l3-0.3c15.8,0.3,33,0.5,49.1,0.9
	C93.4,4.4,58.1-3.2,31.7,14s-34,52.4-16.8,78.8C60.3,93.3,44.4,76.1,44.4,76.1z"/>
<path class="st0" d="M67.5,32.5l-0.1,0.2l44.8,1c-0.4-0.7-0.9-1.4-1.3-2.1L67.5,32.5z"/>
<path class="st0" d="M64.7,38.2L64.7,38.2l46.7,1.1l3.9,0.1c-0.3-0.8-0.7-1.5-1.1-2.2h-1.8L64.7,38.2z"/>
<path class="st0" d="M66,35.5l46.7,1h1.1c-0.4-0.7-0.8-1.5-1.2-2.2l-46.5,1L66,35.5z"/>
<path class="st0" d="M4.2,86.4c-2.3,0-4.2,1.9-4.2,4.2c0,2.3,1.9,4.2,4.2,4.2c2.3,0,4.2-1.9,4.2-4.2S6.6,86.4,4.2,86.4L4.2,86.4z"/>
<path class="st0" d="M222.4,88.5l1.3-3c0.3-0.4,6.6-11.4,4.1-15.2c-0.6-0.7-1.6-1.1-2.6-1h-0.3c-2.8,0.1-5.5,1.5-8.3,4.4
	c-2.3,2.5-4.2,5.3-5.6,8.3c-0.9,2.1-1.9,4.3-2.9,6.6h-2c-0.5,0-1,0-1.6,0H202l15.3-35.5l2.1-4.8h6l-8.9,20.9l0.7-0.5
	c1-0.7,1.9-1.3,2.7-1.9c1.2-0.7,2.4-1.4,3.7-1.9c1.4-0.6,3-1,4.5-1c1.7,0,3.4,0.6,4.7,1.7c2.2,1.9,2.6,5,1.2,8.6
	c-1.7,4.4-3.6,8.9-5.4,13.1l-0.5,1.2L222.4,88.5z"/>
<path class="st0" d="M169.1,37.1L169.1,37.1c-7.3,0.6-15.2,5.9-18.6,14.7c-1.9,4.8-3,9.4,3,12.3c0.8,0.4,1.7,0.8,2.5,1.1l7.7,2.4
	c1,0.3,1.9,0.7,2.7,1.3c0.2,0.2,0.4,0.4,0.6,0.7l0,0.1l0.3,0.8c0.1,0.5,0.1,1-0.1,1.5c-0.7,3.2-2.7,5.9-5.6,7.4
	c-2.1,1.3-4.5,1.9-7,2c-0.3,0-0.5,0-0.8,0c-2.5-0.2-5.1-0.4-7.6-0.6H146c-1.8-0.2-3.4-0.3-5.2-0.6l-2.5-0.2l-3.1,6l0.5,0.1
	c4.5,1.5,9.3,2.2,14.1,2.3h0.1c1.5,0,3-0.1,4.5-0.2c8.8-0.9,15.9-5.4,19.4-12.2c0.3-0.5,0.5-1,0.7-1.5c1.8-4.4,2.9-8.8-0.8-11.5
	c-0.9-0.6-1.8-1.1-2.8-1.5l-0.4-0.2l-1.3-0.5l-3-1.1l-0.9-0.3h-0.2l-1.2-0.5l-0.2-0.1c-2.5-0.8-4-1.7-4.9-3v-0.1
	c-0.5-1.7-0.3-3.4,0.5-5c1.4-2.2,3.4-3.9,5.8-4.9c1.9-0.9,3.9-1.3,6-1.2h262.4l3.3-7.3L169.1,37.1z"/>
<path class="st0" d="M202.6,59.8l-1.7-0.3c-1.1-0.2-2.2-0.4-3.3-0.5c-0.7-0.1-1.4-0.1-2.1-0.1c-5.6,0-10.5,2.9-14.3,8.6
	c-2.6,3.9-4.1,8.4-4.6,13.1c-0.5,3.7,1.4,6.6,4.8,7.5c1.2,0.3,2.5,0.5,3.7,0.5l0,0c2.7-0.2,5.3-0.6,7.9-1.3l0,0c0-0.1,0-0.1,0-0.2
	c0.2-0.6,0.6-2.1,0.7-2.7l0.7-2.5l-2.2,0.3c-0.1,0-0.2,0-0.4,0l-1.9,0.2c-1.5,0.1-2.8,0.3-4.1,0.3h-0.1c-0.8,0-1.6-0.2-2.1-0.7
	c-0.4-0.5-0.6-1.2-0.5-1.8c0.2-4.3,1.8-8.4,4.5-11.7c2.2-2.6,4.5-3.9,7.2-3.9c0.3,0,0.7,0,1,0.1l1.5,0.2c0.8,0.1,1.6,0.2,2.5,0.3
	l1.3,0.3c0.2,0,0.2-0.3,0.7-1.1c0.4-0.6,0.7-1.3,1-1.9L204,60L202.6,59.8z"/>
<path class="st0" d="M270.4,60.5L270.4,60.5l-0.5-0.1l-3.7-0.6l-0.4-0.1c-1.7-0.3-3.7-0.6-5.6-0.8c-0.6-0.1-1.2-0.1-1.7-0.1
	c-3.3,0-6.4,1.3-8.8,3.4c-6.1,5-9.8,12.3-10.5,20.1c-0.3,1.7,0.3,3.5,1.5,4.8c1.2,1,2.7,1.5,4.2,1.4l0,0c1,0,1.9-0.1,2.8-0.4
	c2.1-0.7,4.1-1.8,5.8-3.3l0.7-0.6l-1.5,3.9h1.1l1.1-0.1c0.5,0,1-0.1,1.5-0.1l0,0h1.9l0.8-2.5c0.4-1.2,0.9-2.5,1.5-3.8
	c3-6.5,6.7-14.5,9.6-20.6l0.3-0.6L270.4,60.5z M262.4,64.9c-0.2,0.8-0.5,1.6-0.8,2.4l-0.1,0.3c-0.6,1.4-1.1,2.6-1.6,3.8
	s-1.2,2.8-1.8,4.2c-0.4,0.6-0.8,1.1-1.2,1.6c-2.1,2.4-4.7,4.3-7.6,5.7c-0.7,0.3-1.4,0.5-2.1,0.5h-0.2c-0.9,0.2-1.8-0.4-2-1.3
	c-0.1-0.3,0-0.6,0.1-0.9c0.7-6.1,3.7-11.7,8.4-15.6c1.1-1,2.4-1.6,3.9-1.6h0.1h0.4c0.6,0.1,1.2,0.1,1.7,0.1h0.2c0.7,0,2.2,0.1,3,0.2
	L262.4,64.9z"/>
<path class="st0" d="M292.6,59.3c-0.8,0.2-1.6,0.4-2.4,0.7c-2,0.7-3.9,1.6-5.7,2.6l-0.6,0.3l1.3-3h-5.4l-0.7,1.5l0,0
	c-2.2,5.3-4.8,11.4-7,16.5l-2.5,6c-0.3,0.7-1.9,4.6-1.9,4.6h5.4l2.8-6.6l1.5-3.5l3.1-7.2c0.5-1.2,1.4-2.2,2.5-2.9
	c1.7-0.8,3.5-1.5,5.2-2.2l2.4-1l0.1-0.1c0.4-0.1,0.8-0.4,1-0.8c0.5-0.9,0.9-1.8,1.3-2.8l0.7-1.5l0.4-1L292.6,59.3z"/>
<path class="st0" d="M320.5,48.5c-0.7,0-1.3,0.1-2,0.2c-4.5,0.6-8.4,3.1-11,6.8c-1,1.3-1.9,2.8-2.5,4.3c-0.5,0.4-2.2,0.1-3.4,0.1
	c-0.5,0.9-1.4,2.5-1.8,3.5l-0.9,1.9h0.7h0.9h0.9h1.2l-0.2,0.3l-0.1,0.2c-0.5,1-1,2-1.5,3l-0.5,1.1l-8.9,18.5h5.7
	c3.4-7,6.9-14.1,10.2-21.1l1-2l1.2,0l0,0c1.4,0,3.2,0.1,4.3,0.1c0.6,0,1.6,0,2.3,0h1c0.5-0.8,1.5-2.7,1.9-3.5l0.1-0.1
	c0.1-0.3,0.3-0.6,0.5-0.9l0.4-0.8l-8.3-0.1h-0.3l0.1-0.3c0-0.1,0.1-0.3,0.1-0.4c0.3-1,0.8-1.9,1.5-2.6c0.7-0.9,1.5-1.6,2.5-2.1
	c0.5-0.2,0.9-0.4,1.4-0.6l1.2-0.5l0.4-0.1h0.1c1-0.3,1.9-0.4,2.9-0.6c0.3-0.1,1.5-0.1,3.4-0.1l0.1-0.1l2.5-3.7
	C325.3,48.4,322.9,48.3,320.5,48.5z"/>
<path class="st0" d="M331.9,64.6c1-0.5,2.1-0.7,3.2-0.6c0.5,0,2.1,0,2.7,0.1l9.9,0.1l2.7-5.2h-14h-0.8h-0.8
	c-5.1,0.5-9.6,3.7-11.5,8.5c-1.1,2.8-1.8,5.6,1.9,7.5c0.5,0.2,1,0.4,1.5,0.6l4.3,1.3c0.5,0.1,1,0.4,1.4,0.7c0.1,0.1,0.2,0.2,0.2,0.2
	l0.1,0.3c0,0.2,0,0.5,0,0.7c-0.3,1.7-1.4,3.1-2.9,3.9c-1.1,0.7-2.4,1-3.7,1h-0.4c-1.4-0.1-2.8-0.2-4.2-0.4h-0.1l-4-0.4h-0.1l-0.5,0
	l0,0l-2,4.1l0.6,0.2c2.6,0.8,5.3,1.3,8,1.3l0,0c0.9,0,1.7,0,2.6-0.1c5.1-0.5,9.2-3.1,11.2-7c0.2-0.3,0.3-0.6,0.4-0.9
	c1.1-2.6,1.8-5.3-0.6-7c-0.5-0.4-1.1-0.7-1.7-0.9l-0.2-0.1l-0.8-0.3l-1.7-0.6l-0.5-0.2h-0.1h-0.1l-0.7-0.3H331
	c-1-0.2-1.8-0.7-2.4-1.5c-0.2-0.8-0.2-1.7,0.2-2.4C329.5,66.1,330.6,65.2,331.9,64.6z"/>
<path class="st0" d="M361.1,61.9h-0.5h-0.3h-2.4c-3.2,7-7.3,15.8-10.5,22.6l-1.9,4h5.4c2.4-5,4.8-10.1,7.1-15l3-6.4
	c0.5-1,0.9-2,1.4-3l1-2.1L361.1,61.9z"/>
<path class="st0" d="M367.6,53.3l1-2.1h-5.2c-0.7,1.3-1.7,3.4-2.2,4.5l-1,1.9h1.6h3.6C366.1,56.3,367.1,54.3,367.6,53.3z"/>
<path class="st0" d="M392.3,60.8c-0.3-0.5-0.8-0.9-1.2-1.2c-0.6-0.4-1.3-0.7-2.1-0.8c-0.5-0.1-0.9-0.1-1.4-0.1c-0.3,0-0.5,0-0.8,0
	l0.6,0c-1.4,0.1-2.7,0.4-4,0.9c-0.4,0.2-0.8,0.4-1.2,0.6c-1.9,1.1-3.7,2.4-5.4,3.8l1.9-4.4h-2.2h-0.6h-2.7c-0.6,1.4-1.4,3.4-1.5,3.6
	c-3.9,8.5-7.7,16.9-11.5,25.3h5.4c1.5-3.2,3.3-7.4,5.4-11.6c0.3-0.6,0.5-1.1,0.8-1.7c0.4-0.8,0.8-1.8,1.3-2.7c0,0,0.9-1.6,1.9-3.4
	c0.2-0.2,3.8-4.9,7.6-5.1h0.1h0.4h0.2c1.2,0,2.3,0.5,3.1,1.4c1.2,1.8,0.2,4.5-0.3,5.8c0,0.1-0.1,0.3-0.1,0.4l0,0l-0.2,0.5
	c-0.2,0.4-0.4,0.9-0.5,1.3s-0.4,1.1-0.7,1.7c0,0,0,0.1-0.1,0.1l0,0c-1.3,2.8-2.6,5.6-3.8,8.4l-2.3,4.9h1.5l3.9-0.2l2.7-5.6l0.1-0.3
	c0.9-1.9,1.8-3.8,2.7-5.8c1.7-3.5,3.4-7.2,4-11C393.5,64,393.2,62.3,392.3,60.8z"/>
<path class="st0" d="M422.6,60.9c-0.3-0.5-0.8-0.9-1.2-1.2c-0.6-0.4-1.3-0.7-2.1-0.8c-0.5-0.1-0.9-0.1-1.4-0.1c-0.3,0-0.5,0-0.8,0
	h0.6c-1.4,0.1-2.7,0.4-4,0.9c-0.4,0.2-0.8,0.4-1.2,0.6c-1.9,1.1-3.7,2.4-5.4,3.8l1.9-4.4h-2.2h-0.6h-2.7c-0.6,1.4-1.4,3.4-1.5,3.6
	c-3.9,8.5-7.7,16.9-11.5,25.3h5.4c1.5-3.2,3.4-7.4,5.4-11.6c0.3-0.5,0.5-1.1,0.8-1.7c0.4-0.9,0.8-1.8,1.3-2.7c0,0,0.9-1.7,1.9-3.4
	c0.2-0.2,3.8-4.9,7.6-5.1h0.1h0.4h0.1c1.2-0.1,2.3,0.5,3.1,1.4c1.2,1.8,0.2,4.5-0.3,5.8c-0.1,0.2-0.1,0.3-0.1,0.4l0,0l-0.2,0.4
	c-0.2,0.4-0.4,0.9-0.5,1.3c-0.2,0.6-0.5,1.1-0.7,1.7c0,0,0,0.1-0.1,0.1l0,0c-1.3,2.8-2.6,5.6-3.8,8.4l-2.2,4.9h1.5l3.9-0.2l2.7-5.6
	l0.1-0.3c0.9-1.9,1.8-3.8,2.7-5.8c1.7-3.5,3.4-7.2,4-11C423.8,64,423.5,62.3,422.6,60.9z"/>
</svg>
