<svg id="圖層_1" data-name="圖層 1" xmlns="http://www.w3.org/2000/svg" viewBox="0 0 283.46 283.46"><defs><style>.cls-1{fill:none;stroke:#f9f9f9;stroke-miterlimit:10;stroke-width:0.5px;}</style></defs><g id="油管"><polygon class="cls-1" points="35.78 182.54 34.24 185.62 35.01 186.91 45.11 191.01 47.16 191.01 48.83 188.33 47.87 186.74 38.35 182.54 35.78 182.54"/><polygon class="cls-1" points="37.49 181.68 38.69 179.46 40.83 178.94 49.05 182.54 49.56 184.08 48.02 186.78 38.35 182.54 37.49 181.68"/><path class="cls-1" d="M40.83,179s2.4-4.2,4-4.71a3.83,3.83,0,0,1,2.66-4.2,6.27,6.27,0,0,1,2.56-5.3l3.26-4.46,5.22,2.32-2.14,3.68s-.43,3.93-3.08,6.07c0,0-.26,3.43-2.32,4,0,0-.59,4.62-2,6.16Z"/><ellipse class="cls-1" cx="39.86" cy="189.76" rx="0.77" ry="4.75" transform="translate(-150.25 151.65) rotate(-66.8)"/><path class="cls-1" d="M53.33,160.28S89,102.65,131.25,93.75c0,0,50.62-14.33,96.5,33L225.31,130s-40.65-42.9-93.15-32.18c0,0-35.38,7.37-73.61,64.75Z"/><path class="cls-1" d="M227.75,126.72a9.47,9.47,0,0,1,5.93,4.4s2.63.92,3.37,2.86c0,0,3.54,1.25,4.17,3v2L239,141.28l-2.17-.28s-2-.63-3.25-3.6a4.66,4.66,0,0,1-2.85-2.85,10.51,10.51,0,0,1-5.41-4.52Z"/><path class="cls-1" d="M239,141.28a14.32,14.32,0,0,1,2.68,4.34l.23.91s-1.39,2.64-.68,4.22,1.43,3.12,4.5,2.74,3.36-2.69,3.36-2.69,1.32-4.56-4-5.87c0,0-1-4.73-3.82-5.93Z"/><ellipse class="cls-1" cx="245.15" cy="149.5" rx="1.88" ry="2.4"/></g></svg>