<svg id="圖層_1" data-name="圖層 1" xmlns="http://www.w3.org/2000/svg" viewBox="0 0 283.46 283.46"><defs><style>.cls-1{fill:none;stroke:#f9f9f9;stroke-miterlimit:10;stroke-width:0.5px;}</style></defs><g id="卡鉗"><path class="cls-1" d="M175.77,101.44l-18,12.53s-8.89-38-26-35c0,0-7.27,1.42-8.63,7.27s-4.41,27.6-7.47,29.3-15.63,7-16.47,17.59,2.33,11.31,5.39,16.75,4.75,12,2.93,15-13.24,15.48,0,31.44c0,0,5,8.15,24.25,7.13s30.09,1.23,30.09,1.23,11.5-19.91,13.9-32.13v-5.37l6.48-2.3,2.1-10-7.54-5.06s-.68-14.21-1.69-20,3-14.31,3-14.31l6.23-10.11Z"/><circle class="cls-1" cx="135.07" cy="93.3" r="9.21"/><circle class="cls-1" cx="135.07" cy="93.3" r="5.04"/><circle class="cls-1" cx="149.47" cy="134.35" r="6.2"/><circle class="cls-1" cx="149.47" cy="134.35" r="3.91"/><circle class="cls-1" cx="150.48" cy="186.66" r="6.2"/><circle class="cls-1" cx="150.48" cy="186.66" r="3.91"/><path class="cls-1" d="M132.71,165.6a49.3,49.3,0,0,1-2.05-9.86v-3.69a11.3,11.3,0,0,1,.41-2.2h0c1.06-3.83,4-6.75,4-11.15,0-8.51-5.76-15.41-12.86-15.41s-12.86,6.9-12.86,15.41a16.19,16.19,0,0,0,6.2,13.12c.43,1.87.7,6.07-.81,15.37a17.08,17.08,0,0,0-3.16,10.11c0,8.51,5.75,15.4,12.86,15.4s12.86-6.89,12.86-15.4A16.65,16.65,0,0,0,132.71,165.6Z"/><circle class="cls-1" cx="122.62" cy="136.98" r="8.48"/><circle class="cls-1" cx="124.72" cy="178.92" r="8.48"/></g></svg>