<?xml version="1.0" encoding="utf-8"?>
<!-- Generator: Adobe Illustrator 25.0.1, SVG Export Plug-In . SVG Version: 6.00 Build 0)  -->
<svg version="1.1" id="圖層_1" xmlns="http://www.w3.org/2000/svg" xmlns:xlink="http://www.w3.org/1999/xlink" x="0px" y="0px"
	 viewBox="0 0 283.5 283.5" style="enable-background:new 0 0 283.5 283.5;" xml:space="preserve">
<style type="text/css">
	.st0{fill:none;stroke:#F9F9F9;stroke-width:0.5;stroke-miterlimit:10;}
</style>
<g id="碟盤">
	<circle class="st0" cx="141.7" cy="141.7" r="84.1"/>
	<circle class="st0" cx="110.3" cy="82.9" r="3.4"/>
	<circle class="st0" cx="97" cy="80.4" r="3.4"/>
	<circle class="st0" cx="133.5" cy="76.2" r="3.4"/>
	<circle class="st0" cx="122.5" cy="68.4" r="3.4"/>
	<path class="st0" d="M88.8,96.6c1.7-0.8,3.7,0,4.5,1.7c0.8,1.7,0,3.7-1.7,4.5c-1.7,0.8-3.7,0-4.5-1.7c0,0,0,0,0-0.1
		C86.4,99.4,87.1,97.4,88.8,96.6z"/>
	<path class="st0" d="M80.1,124.7c-1.3,1.4-3.5,1.4-4.8,0.1c-1.4-1.3-1.4-3.5-0.1-4.8c1.3-1.4,3.5-1.4,4.8-0.1c0,0,0,0,0,0
		C81.3,121.2,81.3,123.3,80.1,124.7z"/>
	<path class="st0" d="M75.7,99.8c1.7-0.8,3.7,0,4.5,1.7c0.8,1.7,0,3.7-1.7,4.5c-1.7,0.8-3.7,0-4.5-1.7c0,0,0,0,0-0.1
		C73.2,102.5,74,100.6,75.7,99.8z"/>
	<path class="st0" d="M69.7,161.6c-0.7,1.8-2.6,2.7-4.4,2c-1.8-0.7-2.7-2.6-2-4.4c0.7-1.8,2.6-2.7,4.4-2c0,0,0,0,0.1,0
		C69.4,157.9,70.3,159.8,69.7,161.6z"/>
	<path class="st0" d="M69.1,132.5c-1.3,1.4-3.5,1.4-4.8,0.1c-1.4-1.3-1.4-3.5-0.1-4.8c1.3-1.4,3.5-1.4,4.8-0.1c0,0,0,0,0,0
		C70.3,129,70.3,131.2,69.1,132.5z"/>
	<path class="st0" d="M76.7,150c-0.7,1.8-2.6,2.7-4.4,2s-2.7-2.6-2-4.4c0.7-1.8,2.6-2.7,4.4-2c0,0,0,0,0.1,0
		C76.5,146.3,77.3,148.3,76.7,150z"/>
	<path class="st0" d="M81.4,190.9c-1.9,0.2-3.6-1.1-3.8-2.9s1.1-3.6,2.9-3.8c1.9-0.2,3.6,1.1,3.8,2.9c0,0,0,0,0,0.1
		C84.6,189,83.3,190.6,81.4,190.9z"/>
	<path class="st0" d="M82.2,177.4c-1.9,0.2-3.6-1.1-3.8-2.9c-0.2-1.9,1.1-3.6,2.9-3.8c1.9-0.2,3.6,1.1,3.8,2.9c0,0,0,0,0,0.1
		C85.4,175.5,84.1,177.1,82.2,177.4z"/>
	<path class="st0" d="M95.7,196.2c-0.8-1.7,0-3.7,1.7-4.5c1.7-0.8,3.7,0,4.5,1.7c0.8,1.7,0,3.7-1.7,4.5c0,0,0,0-0.1,0
		C98.5,198.7,96.5,197.9,95.7,196.2z"/>
	<circle class="st0" cx="101.9" cy="208" r="3.4"/>
	<path class="st0" d="M125,209.6c-1.4,1.3-3.5,1.2-4.8-0.2c-1.3-1.4-1.2-3.5,0.2-4.8c1.4-1.3,3.5-1.2,4.8,0.2c0,0,0,0,0,0
		C126.4,206.2,126.3,208.4,125,209.6z"/>
	<path class="st0" d="M132.2,221.1c-1.4,1.3-3.5,1.2-4.8-0.2c-1.3-1.4-1.2-3.5,0.2-4.8c1.4-1.3,3.5-1.2,4.8,0.2c0,0,0,0,0,0
		C133.6,217.7,133.5,219.8,132.2,221.1z"/>
	<path class="st0" d="M151.1,211.5c-0.7,1.8-2.6,2.7-4.4,2c-1.8-0.7-2.7-2.6-2-4.4c0.7-1.8,2.6-2.7,4.4-2c0,0,0,0,0.1,0
		C150.9,207.8,151.8,209.7,151.1,211.5z"/>
	<path class="st0" d="M162.7,218.5c-0.7,1.8-2.6,2.7-4.4,2c-1.8-0.7-2.7-2.6-2-4.4c0.7-1.8,2.6-2.7,4.4-2c0,0,0,0,0.1,0
		C162.4,214.8,163.3,216.8,162.7,218.5z"/>
	<path class="st0" d="M173.8,204.8c-1.9,0.1-3.5-1.3-3.6-3.2c-0.1-1.9,1.3-3.5,3.2-3.6c1.9-0.1,3.5,1.3,3.6,3.2c0,0,0,0,0,0.1
		C177,203.1,175.6,204.7,173.8,204.8z"/>
	<path class="st0" d="M187.2,206.5c-1.9,0.1-3.5-1.3-3.6-3.2c-0.1-1.9,1.3-3.5,3.2-3.6c1.9-0.1,3.5,1.3,3.6,3.2c0,0,0,0,0,0.1
		C190.4,204.8,189,206.4,187.2,206.5z"/>
	<circle class="st0" cx="141.7" cy="144" r="58.1"/>
	<path class="st0" d="M196.3,189.8c-1.6,1-3.7,0.5-4.7-1c-1-1.6-0.5-3.7,1-4.7c1.6-1,3.7-0.5,4.7,1c0,0,0,0,0,0.1
		C198.4,186.7,197.9,188.8,196.3,189.8z"/>
	<path class="st0" d="M208.9,184.8c-1.6,1-3.7,0.5-4.7-1c-1-1.6-0.5-3.7,1-4.7c1.6-1,3.7-0.5,4.7,1c0,0,0,0,0,0.1
		C210.9,181.7,210.4,183.8,208.9,184.8z"/>
	<path class="st0" d="M206.2,167.8c-1.5,1.1-3.6,0.9-4.8-0.6c-1.1-1.5-0.9-3.6,0.6-4.8c1.5-1.1,3.6-0.9,4.8,0.6c0,0,0,0,0,0
		C208,164.6,207.7,166.7,206.2,167.8z"/>
	<path class="st0" d="M218.3,161.8c-1.5,1.1-3.6,0.8-4.8-0.7c-1.1-1.5-0.8-3.6,0.7-4.8c1.5-1.1,3.6-0.8,4.8,0.7c0,0,0,0,0,0
		C220.1,158.6,219.8,160.7,218.3,161.8z"/>
	<path class="st0" d="M209.9,146.2c-1.3,1.4-3.4,1.5-4.8,0.2s-1.5-3.4-0.2-4.8c1.3-1.4,3.4-1.5,4.8-0.2c0,0,0,0,0,0
		C211.1,142.7,211.2,144.9,209.9,146.2z"/>
	<path class="st0" d="M220.8,138.3c-1.3,1.4-3.4,1.5-4.8,0.2c-1.4-1.3-1.5-3.4-0.2-4.8c1.3-1.4,3.4-1.5,4.8-0.2c0,0,0,0,0,0
		C222,134.8,222.1,136.9,220.8,138.3z"/>
	<path class="st0" d="M206.9,124c-0.9,1.7-3,2.3-4.6,1.4s-2.3-3-1.4-4.6c0.9-1.7,3-2.3,4.6-1.4c0,0,0,0,0.1,0
		C207.2,120.3,207.8,122.3,206.9,124z"/>
	<path class="st0" d="M215.5,113.6c-0.9,1.6-3,2.3-4.6,1.3s-2.3-3-1.3-4.6c0.9-1.6,3-2.3,4.6-1.3c0,0,0,0,0,0
		C215.8,109.9,216.4,111.9,215.5,113.6z"/>
	<path class="st0" d="M198.4,103.6c0,1.9-1.5,3.4-3.4,3.4c-1.9,0-3.4-1.5-3.4-3.4c0-1.9,1.5-3.4,3.4-3.4c0,0,0,0,0.1,0
		C196.9,100.2,198.4,101.8,198.4,103.6z"/>
	<path class="st0" d="M200.9,90.3c0,1.9-1.5,3.4-3.4,3.4c-1.9,0-3.4-1.5-3.4-3.4c0-1.9,1.5-3.4,3.4-3.4c0,0,0,0,0.1,0
		C199.4,87,200.9,88.5,200.9,90.3z"/>
	<path class="st0" d="M180,86.7c0.3,1.9-1,3.6-2.9,3.9s-3.6-1-3.9-2.9c-0.3-1.9,1-3.6,2.9-3.9c0,0,0,0,0.1,0
		C178,83.6,179.7,84.9,180,86.7z"/>
	<path class="st0" d="M180.6,73.2c0.3,1.9-1,3.6-2.9,3.9c-1.9,0.3-3.6-1-3.9-2.9c-0.3-1.9,1-3.6,2.9-3.9c0,0,0,0,0.1,0
		C178.6,70.1,180.3,71.4,180.6,73.2z"/>
	<circle class="st0" cx="157.1" cy="77.7" r="3.4"/>
	<circle class="st0" cx="150.4" cy="65.9" r="3.4"/>
</g>
</svg>
