<svg id="圖層_1" data-name="圖層 1" xmlns="http://www.w3.org/2000/svg" viewBox="0 0 283.46 283.46"><defs><style>.cls-1{fill:none;stroke:#f9f9f9;stroke-miterlimit:10;stroke-width:0.5px;}</style></defs><path class="cls-1" d="M220.39,131.08l-11.3,3.68a14.44,14.44,0,0,1-3,.46s-4.63-3.88-9.85-.91c0,0-2.84,1.15-10.45-8l-7.17,5.13s7.29,6,5.12,8.83l-5.48-1.85s-4.73-.61-6.59,6.2c0,0-2.27,2.58-2.27,3.08s-.17,1.33-4.82.14-23.93-4.76-23.93-4.76-3.15-2.67-19.81,3.25-56.12,18.88-58.3,21.87c0,0,5.53,4.54,9.92,3.46,5-1.25,5.88-6.52,5.5-6,0,0,48.87-18,58.35-18.1,0,0,7.07.7,18.77,4.9,0,0,22,6,35.46,3.75,0,0,10.28-5,11.67-6.83s5.69-8.39,5.69-8.39l12.34-6.7a2.76,2.76,0,0,0,.67-1.68A3.17,3.17,0,0,0,220.39,131.08Z"/><path class="cls-1" d="M62.56,168.17l0,7.48s4,4.18,9,4.37S78,173.78,78,173.78a6.71,6.71,0,0,1,3.17-2.48l51-15.92s2.56-1.32,7.87,0,13.23,4.77,14.73,4.78,4.38-.43,5.82-.14,10.18,4.25,16.23,4.11,13.08.39,14.08.06,9.11-4.67,9.11-4.67l.34-2.49.78-.44s.22.44.55.11a11.59,11.59,0,0,0,1.06-1.64s13.2-14.27,16.42-15.53l1.19-5.3"/><ellipse class="cls-1" cx="200.87" cy="138.33" rx="3.86" ry="6.37" transform="translate(61.69 338.62) rotate(-89.76)"/><ellipse class="cls-1" cx="199.65" cy="112.38" rx="2.97" ry="4.9" transform="matrix(0, -1, 1, 0, 86.42, 311.55)"/><ellipse class="cls-1" cx="199.65" cy="112.38" rx="1.6" ry="2.64" transform="translate(86.42 311.55) rotate(-89.76)"/><polyline class="cls-1" points="180.6 133.22 183.23 133.59 189.18 130.01"/><path class="cls-1" d="M171.69,144.59a4.09,4.09,0,0,1,2.4-.4c1.28.23,8.25,2.2,8.25,2.2l2.51-5.37-1.09-.78"/><path class="cls-1" d="M174.09,144.19l-.89,2.16s3.41,4.67,4.74,5.07,6.21.13,14,2.38l1.88.73"/><ellipse class="cls-1" cx="197.75" cy="146.9" rx="2.77" ry="3.88" transform="translate(50.02 344.03) rotate(-89.76)"/><ellipse class="cls-1" cx="198.04" cy="144.9" rx="2" ry="3.27" transform="translate(52.3 342.33) rotate(-89.76)"/><path class="cls-1" d="M194.77,144.89v2a3.68,3.68,0,0,0,3,1.56,4.35,4.35,0,0,0,3.55-1.54v-2"/><path class="cls-1" d="M178.64,131.41s-1.35,5.09-1.13,5.7a5,5,0,0,0,.77,1.28"/><line class="cls-1" x1="185.81" y1="126.28" x2="185.81" y2="110.78"/><line class="cls-1" x1="196.26" y1="134.26" x2="196.26" y2="118.76"/><line class="cls-1" x1="206.18" y1="135.08" x2="206.11" y2="119.59"/><line class="cls-1" x1="220.39" y1="131.08" x2="220.39" y2="115.04"/><path class="cls-1" d="M220.39,115c0,1.52-7.53,3.7-7.53,3.7a13.29,13.29,0,0,1-6.82.84,13.77,13.77,0,0,0-5-1.82,8.7,8.7,0,0,0-4.88,1.1c-3.21.29-10.38-8.08-10.38-8.08L207,103.44Z"/><line class="cls-1" x1="199.65" y1="110.78" x2="198.49" y2="113.81"/><line class="cls-1" x1="200.86" y1="110.87" x2="199.7" y2="113.89"/></svg>