<svg id="圖層_1" data-name="圖層 1" xmlns="http://www.w3.org/2000/svg" viewBox="0 0 841.89 595.28"><defs><style>.cls-1,.cls-2{fill:none;stroke:#f9f9f9;stroke-miterlimit:10;stroke-width:0.25px;}.cls-2{stroke-linecap:round;}</style></defs><circle class="cls-1" cx="217.08" cy="427.03" r="37.86"/><path class="cls-1" d="M217.3,384.48A42.55,42.55,0,1,1,174.75,427,42.55,42.55,0,0,1,217.3,384.48Zm-62.94,44a63.8,63.8,0,1,0,63.79-63.8A63.79,63.79,0,0,0,154.36,428.47Z"/><path class="cls-1" d="M210.09,401.15s1.45-9.06-4.13-6.8a34.74,34.74,0,0,0-7.21,3.6,41,41,0,0,0-6.15,4.79c-4.46,4,4.31,6.34,4.31,6.34"/><path class="cls-1" d="M190.26,420.67s-6.29-6.22-7.35-.3a35.22,35.22,0,0,0-.77,8,40.37,40.37,0,0,0,.79,7.76c1,5.92,7.33.11,7.33.11"/><path class="cls-1" d="M197.26,448.21s-7.56,2.49-2.83,6.2a34.63,34.63,0,0,0,6.72,4.45,40.15,40.15,0,0,0,7.22,2.95c5.72,1.84,3.07-5.82,3.07-5.82"/><path class="cls-1" d="M226,455.2s-1.49,7.22,4,4.81a35,35,0,0,0,7.11-3.8,40.73,40.73,0,0,0,6-5c4.35-4.16-3.57-5.64-3.57-5.64"/><path class="cls-1" d="M217.3,400.33a28.14,28.14,0,1,0,28.13,28.14A28.14,28.14,0,0,0,217.3,400.33Zm-10.52,7.31a1.13,1.13,0,1,1-1.13,1.13A1.14,1.14,0,0,1,206.78,407.64Zm-4.45-.81A1.13,1.13,0,1,1,201.2,408,1.12,1.12,0,0,1,202.33,406.83Zm-3.24,6a1.13,1.13,0,1,1-.58,1.49A1.14,1.14,0,0,1,199.09,412.85Zm-2.42,9.91a1.13,1.13,0,1,1,0-1.6A1.14,1.14,0,0,1,196.67,422.76Zm-2-8.85a1.13,1.13,0,1,1-.57,1.49A1.12,1.12,0,0,1,194.69,413.91Zm-1.5,21.19a1.14,1.14,0,0,1-1.46.65,1.13,1.13,0,0,1,.8-2.11A1.13,1.13,0,0,1,193.19,435.1Zm-.2-9.72a1.13,1.13,0,0,1-1.6,0,1.13,1.13,0,0,1,1.57-1.62A1.14,1.14,0,0,1,193,425.38Zm2.55,5.86a1.13,1.13,0,1,1-.65-1.46A1.14,1.14,0,0,1,195.54,431.24Zm1.58,13.66a1.13,1.13,0,1,1,1-1.26A1.14,1.14,0,0,1,197.12,444.9Zm.28-4.51a1.14,1.14,0,0,1-1.26-1,1.13,1.13,0,0,1,1-1.25,1.11,1.11,0,0,1,1.25,1A1.13,1.13,0,0,1,197.4,440.39Zm4.12,6.8a1.13,1.13,0,1,1,1.49.58A1.14,1.14,0,0,1,201.52,447.19Zm2.54,5a1.13,1.13,0,1,1,.57-1.49A1.12,1.12,0,0,1,204.06,452.17Zm7.71-1a1.13,1.13,0,1,1,.07-1.59A1.13,1.13,0,0,1,211.77,451.18Zm2.41,3.83a1.13,1.13,0,1,1,.07-1.6A1.14,1.14,0,0,1,214.18,455Zm6.57-2.73a1.13,1.13,0,1,1-.65-1.46A1.13,1.13,0,0,1,220.75,452.28Zm3.86,2.35a1.13,1.13,0,1,1-.65-1.46A1.13,1.13,0,0,1,224.61,454.63Zm3.4-5.06a1.13,1.13,0,1,1,1.06-1.2A1.14,1.14,0,0,1,228,449.57Zm4.49.55a1.13,1.13,0,1,1,1.06-1.19A1.12,1.12,0,0,1,232.5,450.12Zm3.17-5.51a1.13,1.13,0,1,1,.56-1.49A1.12,1.12,0,0,1,235.67,444.61Zm-18.38,4a19.43,19.43,0,1,1,19.42-19.43A19.43,19.43,0,0,1,217.29,448.65Zm22.77-5.12a1.13,1.13,0,1,1-.93-2.06,1.13,1.13,0,0,1,.93,2.06Z"/><path class="cls-1" d="M220.92,429.11s.28-1.9,1.1-2.41,3.53-1.29,3.34-6.39c0,0,2.38-7,6.84-8,0,0,4.51-.84,4.38-4.39s-5.87-6.64-5.87-6.64-6.05-3.94-2-11.1l-2.94-1.29L215.2,416.94l-1.2,3.31s-.52,5.27,3.2,7.06Z"/><path class="cls-1" d="M239.36,352.05l-6.53-2.53a2.15,2.15,0,0,0-2.76,1.22L198.27,435c-.42,1.09-.19,4.67.9,5.09l4.4,2c1.09.42,4.21-1.65,4.63-2.75l1.32-3.45,3.33-2.09c5.48,3.67,8.48.79,9.7-.71s1.7-4.13-.24-6.83c-2.08-2.9-6.8-1.7-6.8-1.7l-1-1.78,26-68A2.14,2.14,0,0,0,239.36,352.05Z"/><polygon class="cls-1" points="220.16 429.18 218.24 427.47 215.8 428.29 215.28 430.8 217.21 432.51 219.64 431.7 220.16 429.18"/><circle class="cls-1" cx="217.72" cy="429.99" r="3.44"/><circle class="cls-1" cx="217.72" cy="429.99" r="1.5"/><circle class="cls-1" cx="217.72" cy="429.99" r="1"/><circle class="cls-1" cx="217.72" cy="429.99" r="4.43"/><circle class="cls-1" cx="230.61" cy="407.41" r="3.74"/><circle class="cls-1" cx="230.61" cy="407.41" r="1.11"/><polygon class="cls-1" points="232.83 406.13 230.6 404.84 228.38 406.13 228.38 408.7 230.6 409.98 232.83 408.7 232.83 406.13"/><path class="cls-1" d="M257.39,412.75l-5.12,3.57s-2.54-10.82-7.41-10c0,0-2.08.41-2.46,2.08s-1.26,7.86-2.13,8.34-4.46,2-4.7,5,.67,3.23,1.54,4.78,1.35,3.42.84,4.28-3.78,4.42,0,9c0,0,1.43,2.33,6.91,2a37.09,37.09,0,0,1,8.57.35s3.28-5.68,4-9.16v-1.53l1.85-.66.6-2.84-2.15-1.44s-.2-4.05-.49-5.71a8.62,8.62,0,0,1,.87-4.08l1.78-2.88Z"/><circle class="cls-1" cx="245.79" cy="410.44" r="2.63"/><circle class="cls-1" cx="245.79" cy="410.44" r="1.44"/><circle class="cls-1" cx="249.9" cy="422.13" r="1.77"/><circle class="cls-1" cx="249.9" cy="422.13" r="1.11"/><circle class="cls-1" cx="250.18" cy="437.04" r="1.77"/><circle class="cls-1" cx="250.18" cy="437.04" r="1.11"/><path class="cls-1" d="M245.12,431a13.4,13.4,0,0,1-.58-2.81v-1.05a3,3,0,0,1,.11-.63h0c.3-1.09,1.14-1.93,1.14-3.18,0-2.42-1.64-4.39-3.66-4.39s-3.67,2-3.67,4.39a4.59,4.59,0,0,0,1.77,3.74,12.77,12.77,0,0,1-.23,4.38,4.82,4.82,0,0,0-.9,2.88c0,2.43,1.64,4.39,3.66,4.39s3.67-2,3.67-4.39A4.74,4.74,0,0,0,245.12,431Z"/><circle class="cls-1" cx="242.25" cy="422.88" r="2.42"/><circle class="cls-1" cx="242.84" cy="434.83" r="2.42"/><circle class="cls-1" cx="220.82" cy="420.37" r="3.74"/><circle class="cls-1" cx="220.82" cy="420.37" r="1.11"/><polygon class="cls-1" points="223.26 419.55 221.34 417.85 218.9 418.66 218.39 421.18 220.31 422.88 222.75 422.07 223.26 419.55"/><circle class="cls-1" cx="233.57" cy="429.11" r="2.32"/><circle class="cls-1" cx="233.57" cy="429.11" r="0.69"/><polygon class="cls-1" points="235.08 428.6 233.89 427.54 232.38 428.05 232.06 429.61 233.25 430.67 234.76 430.17 235.08 428.6"/><ellipse class="cls-1" cx="227.45" cy="415.93" rx="0.84" ry="0.19" transform="matrix(0.77, -0.64, 0.64, 0.77, -212.65, 239.75)"/><ellipse class="cls-1" cx="227.73" cy="416.27" rx="0.84" ry="0.19" transform="translate(-212.81 240.01) rotate(-39.51)"/><ellipse class="cls-1" cx="228.09" cy="416.7" rx="1.21" ry="0.37" transform="translate(-213 240.34) rotate(-39.51)"/><rect class="cls-1" x="229.17" y="418.24" width="3.52" height="3.81" rx="1.05" transform="translate(-214.54 242.93) rotate(-39.51)"/><rect class="cls-1" x="227.64" y="416.77" width="2.72" height="2.09" rx="0.8" transform="translate(-213.5 241.17) rotate(-39.51)"/><circle class="cls-1" cx="214.9" cy="443.7" r="0.48"/><circle class="cls-1" cx="214.66" cy="445.23" r="0.59"/><circle class="cls-1" cx="216.94" cy="443.94" r="0.48"/><circle class="cls-1" cx="216.83" cy="445.5" r="0.59"/><circle class="cls-1" cx="218.77" cy="443.94" r="0.48"/><circle class="cls-1" cx="218.83" cy="445.49" r="0.59"/><circle class="cls-1" cx="220.77" cy="443.81" r="0.48"/><circle class="cls-1" cx="220.95" cy="445.36" r="0.59"/><circle class="cls-1" cx="222.65" cy="443.4" r="0.48"/><circle class="cls-1" cx="223.21" cy="444.85" r="0.59"/><circle class="cls-1" cx="224.28" cy="442.71" r="0.48"/><circle class="cls-1" cx="225" cy="444.09" r="0.59"/><circle class="cls-1" cx="226.03" cy="441.79" r="0.48"/><circle class="cls-1" cx="227.02" cy="443" r="0.59"/><circle class="cls-1" cx="227.74" cy="440.75" r="0.48"/><circle class="cls-1" cx="228.81" cy="441.88" r="0.59"/><circle class="cls-1" cx="229.11" cy="439.53" r="0.48"/><circle class="cls-1" cx="230.36" cy="440.45" r="0.59"/><circle class="cls-1" cx="230.61" cy="438.09" r="0.48"/><circle class="cls-1" cx="231.84" cy="439.04" r="0.59"/><path class="cls-1" d="M214.48,439.58s3.63,3.92,9.39,0,3.85-6.83,3.85-6.83a20.19,20.19,0,0,1-5.41,4.72C219.56,438.82,218.89,439.7,214.48,439.58Z"/><path class="cls-1" d="M227.07,416.27l.55-.71s-2.84-5.39-1.82-9c0,0,.36-3.89,5.69-9.87s11-13.3,12.5-16l2.44-4.22-.64-.58s-8.85,13.24-12.16,16.68-7.59,7.93-8.53,12.07A13.55,13.55,0,0,0,227.07,416.27Z"/><path class="cls-1" d="M251,378.5a68.87,68.87,0,0,0,3.74,14.68c2.78,7,5.35,14.32,2.94,19.55l1.63.89s3.08-5.46-1.47-17.43c-4.45-11.71-4.71-16.08-4.71-16.08V378.5Z"/><circle class="cls-1" cx="604.27" cy="425.97" r="37.86"/><path class="cls-1" d="M597.18,451.83s-5.84,7.07.11,7.95a35,35,0,0,0,8,.55,40.55,40.55,0,0,0,7.73-1c5.89-1.22-.5-7.65-.5-7.65"/><path class="cls-1" d="M624.16,445.05s2.28,8.56,6.19,4a34.91,34.91,0,0,0,4.73-6.53,40.2,40.2,0,0,0,3.25-7.08c2.1-5.64-6.26-3.82-6.26-3.82"/><path class="cls-1" d="M632.09,417.76s7.79,1.69,5.59-3.91a34.61,34.61,0,0,0-3.54-7.24,40.61,40.61,0,0,0-4.73-6.2c-4-4.49-5.6,3.46-5.6,3.46"/><path class="cls-1" d="M610.84,397.16s4.95-5.47-1-6.19a35.35,35.35,0,0,0-8-.33,41.63,41.63,0,0,0-7.7,1.23c-5.85,1.38.22,6.67.22,6.67"/><circle class="cls-2" cx="604.27" cy="426.15" r="29.74"/><path class="cls-1" d="M590.61,454.06a28.84,28.84,0,0,1-3.43-.19,1.5,1.5,0,0,1-1.31-1.67h0a1.5,1.5,0,0,1-1.82,1.09,23.9,23.9,0,0,1-4-1.37,1.51,1.51,0,0,1-.76-2v0a1.51,1.51,0,0,1-2.07.49,23.82,23.82,0,0,1-3.4-2.56,1.49,1.49,0,0,1-.11-2.12h0a1.51,1.51,0,0,1-2.12-.15,28.71,28.71,0,0,1-2.51-3.4,1.5,1.5,0,0,1,.47-2.07l0,0,0,0a1.51,1.51,0,0,1-2-.68,35,35,0,0,1-1.62-3.85,1.52,1.52,0,0,1,.92-1.92h0a1.52,1.52,0,0,1-1.84-1.07c-.34-1.31-.63-2.68-.85-4.06a1.5,1.5,0,0,1,3-.47,37.54,37.54,0,0,0,.79,3.77,1.44,1.44,0,1,0,.84,2.75,31,31,0,0,0,1.48,3.52,1.42,1.42,0,1,0,1.39,2.48,26.49,26.49,0,0,0,2.24,3,1.4,1.4,0,1,0,2,2,21.29,21.29,0,0,0,3,2.24,1.4,1.4,0,1,0,2.47,1.3,21,21,0,0,0,3.53,1.2A1.5,1.5,0,0,1,585.9,452a1.48,1.48,0,0,1,1.63-1.13,24.89,24.89,0,0,0,3,.17h.78a1.47,1.47,0,0,1,1.51,1.39,1.51,1.51,0,0,1,1.42-1.49c1.35-.07,2.65-.19,3.87-.35a1.44,1.44,0,0,0,2.84-.49,28.64,28.64,0,0,0,3.66-1,1.41,1.41,0,1,0,2.59-1.09,18.77,18.77,0,0,0,3.13-2,1.38,1.38,0,0,0,2-1.85,19.88,19.88,0,0,0,2.28-2.93,1.49,1.49,0,0,1,1.92-.53,1.52,1.52,0,0,1-.55-1.93,32.33,32.33,0,0,0,1.47-3.53,1.45,1.45,0,0,0,.88-2.77c.33-1.17.65-2.44.94-3.79a1.51,1.51,0,0,1,1.57-1.18,1.49,1.49,0,0,1-1.22-1.51c0-.15,0-.3,0-.45a15.68,15.68,0,0,0-.33-3.18,1.38,1.38,0,1,0-.77-2.65,22.43,22.43,0,0,0-1.63-3.35,1.41,1.41,0,1,0-1.6-2.32,26.73,26.73,0,0,0-2.53-2.82,1.43,1.43,0,1,0-2.14-1.89,30.51,30.51,0,0,0-3.11-2.21,1.48,1.48,0,0,1-.54-2,1.51,1.51,0,0,1-2,.57,33.93,33.93,0,0,0-3.5-1.52,1.51,1.51,0,0,1-.93-1.83,1.49,1.49,0,0,1-1.81.95,32.35,32.35,0,0,0-3.74-.8,1.5,1.5,0,0,1-1.27-1.58,1.48,1.48,0,0,1-1.58,1.27l-.78,0c-1,0-1.93-.06-2.87-.06h-.25a1.46,1.46,0,1,0-2.91.09c-1.36.08-2.65.21-3.83.39a1.43,1.43,0,1,0-2.8.57,20.63,20.63,0,0,0-3.51,1.23,1.36,1.36,0,1,0-2.37,1.34,13.21,13.21,0,0,0-2.63,2.42,1.5,1.5,0,0,1-1.88.37,1.48,1.48,0,0,1,.39,1.87,17,17,0,0,0-1.33,3.41,1.4,1.4,0,0,0-.57,2.75,31.94,31.94,0,0,0-.31,3.8,1.4,1.4,0,0,0,0,1c0,1.3,0,2.6.17,3.86a1.5,1.5,0,0,1-3,.26c-.12-1.35-.18-2.74-.18-4.12a1.5,1.5,0,0,1,.09-.52,1.44,1.44,0,0,1-.08-.51,35.73,35.73,0,0,1,.34-4.16,1.51,1.51,0,0,1,1.7-1.27h0a1.51,1.51,0,0,1-1-1.85,19.93,19.93,0,0,1,1.57-4,1.5,1.5,0,0,1,2-.62h0l0,0a1.5,1.5,0,0,1-.21-2.11,16.09,16.09,0,0,1,3.23-3,1.51,1.51,0,0,1,2.09.38l0,0v0a1.5,1.5,0,0,1,.73-2,23.83,23.83,0,0,1,4-1.41,1.49,1.49,0,0,1,1.82,1.08v0h0a1.5,1.5,0,0,1,1.26-1.71c1.28-.2,2.66-.34,4.12-.43a1.49,1.49,0,0,1,1.58,1.42h0a1.5,1.5,0,0,1,1.48-1.52h.27c1,0,2,0,3,.06l.86,0a1.51,1.51,0,0,1,1.4,1.59h0a1.49,1.49,0,0,1,1.71-1.25,36.61,36.61,0,0,1,4.08.87,1.5,1.5,0,0,1,1,1.84v0a1.5,1.5,0,0,1,1.92-.89,38.16,38.16,0,0,1,3.83,1.66,1.51,1.51,0,0,1,.66,2l0,0,0,0a1.5,1.5,0,0,1,2.07-.48,34.78,34.78,0,0,1,3.41,2.41,1.5,1.5,0,0,1,.23,2.11h0a1.49,1.49,0,0,1,2.12,0,29.41,29.41,0,0,1,2.81,3.13,1.5,1.5,0,0,1-.27,2.11l0,0,0,0a1.5,1.5,0,0,1,2.06.51,23.25,23.25,0,0,1,1.86,3.83,1.5,1.5,0,0,1-.87,1.94h0a1.5,1.5,0,0,1,1.77,1.16,18.73,18.73,0,0,1,.39,3.78c0,.17,0,.36,0,.55a1.5,1.5,0,0,1-1.5,1.45h-.06a1.5,1.5,0,0,1,1.15,1.78c-.31,1.41-.64,2.74-1,4a1.55,1.55,0,0,0-.94,3,36.25,36.25,0,0,1-1.6,3.85,1.51,1.51,0,0,1-2,.69h0a1.49,1.49,0,0,1,.45,2.07,22.1,22.1,0,0,1-2.62,3.37,1.64,1.64,0,0,0-2.39,2.17,22.08,22.08,0,0,1-3.62,2.26,1.51,1.51,0,0,1-2-.67h0a1.5,1.5,0,0,1-.92,1.91,32,32,0,0,1-4,1.12,1.56,1.56,0,0,0-3.06.52c-1.29.17-2.67.3-4.09.38a1.53,1.53,0,0,0-3.06.1Z"/><path class="cls-1" d="M656.18,345.73c-5.81,2.58-32.64,8.39-32.64,8.39L516.7,376.55,499,391.67l154.32-5.94.53.44,6.41,9.25,2.65-1.61.22.18s17.8,22,22.06,22.79S662,343.15,656.18,345.73Z"/><path class="cls-1" d="M307.92,431.09l2.19,11.66s4.65,9.11,8.13,9.59,97.55.78,97.55.78l20.52-11S477,447.33,487,439.05c0,0,13.68,6.91,29.68,7.25l28.54,11,6.89,5.71L550,428.87l-44.67-42.62-12,12.08Z"/><path class="cls-1" d="M604.27,383.52a42.55,42.55,0,1,1-42.54,42.55A42.55,42.55,0,0,1,604.27,383.52Zm-62.94,44a63.8,63.8,0,1,0,63.8-63.8A63.79,63.79,0,0,0,541.33,427.51Z"/><circle class="cls-1" cx="590.88" cy="426.15" r="24.7"/><circle class="cls-1" cx="588.56" cy="427.44" r="15.1"/><circle class="cls-1" cx="588.56" cy="427.44" r="11.61"/><polygon class="cls-1" points="615.58 354.2 632.21 412.34 633.54 415.82 641.36 412.8 622.34 352.39 620.15 351.23 615.58 352.52 615.58 354.2"/><path class="cls-1" d="M621.44,380.56s6.32-1,10.19-4.52c0,0,1.74-.45.77,1.29,0,0-5.38,3.81-9.67,4.39C622.73,381.72,620.92,382.49,621.44,380.56Z"/><path class="cls-1" d="M620.4,377.2s6.33-1,10.2-4.51c0,0,1.74-.46.77,1.29,0,0-5.38,3.8-9.67,4.38C621.7,378.36,619.89,379.14,620.4,377.2Z"/><path class="cls-1" d="M619.24,374.26s6.33-1,10.2-4.52c0,0,1.74-.45.77,1.29,0,0-5.38,3.81-9.68,4.39C620.53,375.42,618.73,376.2,619.24,374.26Z"/><path class="cls-1" d="M622.28,383.94s6.32-1,10.19-4.52c0,0,1.74-.45.77,1.29,0,0-5.38,3.81-9.67,4.39C623.57,385.1,621.76,385.87,622.28,383.94Z"/><path class="cls-1" d="M623.63,387.29s6.32-1,10.19-4.51c0,0,1.75-.45.78,1.29,0,0-5.39,3.8-9.68,4.38C624.92,388.45,623.11,389.23,623.63,387.29Z"/><path class="cls-1" d="M624.6,390.23s6.32-1,10.19-4.51c0,0,1.74-.45.78,1.29,0,0-5.39,3.8-9.68,4.39C625.89,391.4,624.08,392.17,624.6,390.23Z"/><path class="cls-1" d="M625.63,393.18s6.32-1,10.19-4.52c0,0,1.75-.45.78,1.29,0,0-5.39,3.81-9.68,4.39C626.92,394.34,625.11,395.11,625.63,393.18Z"/><path class="cls-1" d="M618.32,418.41s5.73,8.55,16.57,4.3l4.31-1.35,3.6,5.72s-6.42,10.3-11.13,12-17.46,10.57-26.36,5.92l9.31-22.26Z"/><path class="cls-1" d="M633.54,415.82l3.35,10.33s2.39,4.82,5.81,3.55c4-1.48,2.7-5.83,2.7-5.83l-4-11.07Z"/><circle class="cls-1" cx="641.57" cy="425.07" r="2.37"/><path class="cls-1" d="M562.76,411,558,439.74l7.58,19.41s-2.08,2-.84,3.34,4.42,4.91,5.93,4.12,3.38-4.11,2.67-5.25-4.86-3.56-4.86-3.56l-1.18-.34-5.34-18.56,4.6-25.59Z"/><path class="cls-1" d="M518.31,382.31a4.59,4.59,0,0,1,.42,3.36c-.52,1.95-2.61,4.33-8.94,5.88,0,0-8.26.78-9,2.94s0,4.48-4.65,5.51c0,0-2.58,6.45-2.06,9.55s-2.58,4.65-2.58,4.65-3.1,7.64,5.94,11.95,41.29,11,46.45,10.76,9.29.76,14.06-14.2c0,0,11.34-12.13,19-15l7-5.3-33.14-5.79-6.45-5.1-2.84-9.68-.77-2.94Z"/><path class="cls-1" d="M540.76,378.93s10.84,13.4,21.42,15.56,19.61,3.45,19.61,3.45l2.17,4.5-33.14-5.79-6.45-5.1-3.61-12.62"/><line class="cls-1" x1="518.73" y1="385.67" x2="541.66" y2="382.31"/><circle class="cls-1" cx="547.63" cy="395.17" r="2.4"/><circle class="cls-1" cx="502.96" cy="422.77" r="2.4"/><circle class="cls-1" cx="571.67" cy="400.72" r="2.4"/><circle class="cls-1" cx="540.19" cy="431.35" r="2.4"/><path class="cls-1" d="M384.83,428.42l-4.65,5s-9.57,2.17-9.82,3.82,3.24,14,3.24,14L413.86,449s.77-7.64,13.93-11.39,38.71-8.39,38.71-8.39,1.55-7.11,10.07-8.2S487.4,409.9,487.4,409.9Z"/><path class="cls-1" d="M377.47,436s3.48,6,0,9.1-1.94-.78-1.94-.78Z"/><path class="cls-1" d="M389.73,446.3l64.35-14.7s4-6.83-2.68-5.44-61.67,15-61.67,15S386.91,442.41,389.73,446.3Z"/><path class="cls-1" d="M668.92,360.31l-6.55,3.4s10.84,32.37,25.16,34.62Z"/><path class="cls-1" d="M322.07,407.88l12.06,23S471,413.28,482.37,409.44s34.33-32.89,34.33-32.89l-3-4.43Z"/><path class="cls-1" d="M449.34,389.35s-23.5,25.71-79,36.81"/><path class="cls-1" d="M463.79,389.35s.26,5.93,1.81,5.93,37.16-8.77,37.16-8.77-.52-5.94-1.29-5.68S463.79,389.35,463.79,389.35Z"/><line class="cls-1" x1="464.26" y1="393.03" x2="502.51" y2="384.33"/><path class="cls-1" d="M411.92,297.22s-20.13-22.45,0-37.16c0,0,13,4.34,52.44.69C504,257.08,582,240.2,592.34,237.6l6.16-1.55s18.58,7.75,13.55,21.68c0,0-8.95,6.71-28.09,11.1S455.28,299.93,411.92,297.22Z"/><path class="cls-1" d="M412.36,260s44.73-5.82,67.77-9.11c22.67-3.24,95.15-16.38,105.79-17.16s12.58,2.32,12.58,2.32S487.35,263.14,435,262.21C427.12,262.07,416.69,261.69,412.36,260Z"/><path class="cls-1" d="M603,277.67s11.62,13.74,16.84,13.93,5.81-.19,2.9-5.22-3.29-5.81-3.29-5.81l11.8-27.36-2.73-1.48Z"/><path class="cls-1" d="M611.93,248.18s14.06-7.09,19.47-2.06-2.93,8.9-2.93,8.9-22.61,17.23-28.61,18.78A57.17,57.17,0,0,1,589,275.54v-8l4.2-1.25.44,4.2s12.18-3.87,19.25-9.1,12.3-9.48,12.11-11.23a2.22,2.22,0,0,0-1.74-2l-10.37,3.94Z"/><path class="cls-1" d="M503.24,354.08l-.43-.75A5.87,5.87,0,0,0,492,357.67l12-2.31Z"/><path class="cls-1" d="M496.76,366.35l1.05,1.82a5.87,5.87,0,0,0,10.83-4.11Z"/><path class="cls-1" d="M506.91,360.44l-1.6-2.77-12,2.3h0a5.59,5.59,0,0,0,.62,1.53l1.72,3,11.88-2.29A5.84,5.84,0,0,0,506.91,360.44Z"/><path class="cls-1" d="M344.05,126.25s-11.61,1-11.61,3.55.19,29.66.19,29.66l.07,1.37h4l-.26-27.23s5.29-2.71,7.61-1.87Z"/><path class="cls-1" d="M331.64,159.41c1.13,1,3.22,2.92,6.22-.19l-.11,16.72s-3.06,3.06-6.06-.18l-.09-15.31Z"/><path class="cls-1" d="M332,177.85l-7.56,4.23s1.55,4,0,5.1a26.09,26.09,0,0,1-5.38,2.25s-2.67,3.1,0,3.48,6.16-2.18,7.71-5.73A89,89,0,0,1,332,177.85Z"/><ellipse class="cls-1" cx="337.3" cy="185.79" rx="8.83" ry="9.94"/><polygon class="cls-1" points="350.94 193.43 339.53 189.16 337.3 182.11 343.09 181.15 355.02 186.12 350.94 193.43"/><circle class="cls-1" cx="340.72" cy="184.8" r="4.35"/><circle class="cls-1" cx="353.37" cy="189.93" r="4.35"/><ellipse class="cls-1" cx="349.32" cy="120.58" rx="3.88" ry="17.71" transform="translate(-12.55 45.66) rotate(-7.35)"/><path class="cls-1" d="M344.05,126.25l1.84-2.3,1.71,7.58s-2.52,1.56-3.55.2Z"/><path class="cls-1" d="M312.16,212.19l25.14,7.72c2.63.69,4.34,1.12,4.34,1.12,6.66-6.66,5.28-41.21,5.28-41.21-27.27-28.4-61.94-23.5-61.94-23.5-.58,12.64,1.75,38.59,2.19,43.35h0c0,.49.07.75.07.75h19.22c5.28,0,2.89,10.3,2.89,10.3l2.8,1.47Z"/><path class="cls-1" d="M308,225c0,.06,0,.11-.1.16-.33.32,1.46,5.59-16,32.81-20.51,32-11.23,65.66-9,68.65,0,0,23.24,50.45,39.13,81.24h0l174.24-32.29c-32.13-65.25-77.53-50.89-77.53-50.89a88.78,88.78,0,0,1,0,19.74c-1.28,9.68-8,29-8,29l-82.29,15.08c-9.52-14-10.6-53-10.6-53S331,299.93,331.6,293.73,316,276.31,316,276.31l24.76-51.48a40.84,40.84,0,0,1-4.35-1.94c-3.17-1.54.93-3,.93-3h0c-6.52-2-18.43-5.89-25.14-7.72h0a14.4,14.4,0,0,1-2.8-1.47l-.56,1.53C310.9,215.92,309.31,223.1,308,225Zm17.78,67.36-1.87,3.29-25.55,50.06s-15.07-16-15.66-33.29,1.5-32.26,6.13-42.06l.82-1.55h5.94Z"/><path class="cls-1" d="M250.74,322h-.82c-70.67,5.47-82.55,49.19-82.55,49.19l67.7.22c5.08.75,46.51,38.79,46.51,38.79s8.11,7.54,13,4.72a8.87,8.87,0,0,0,2.38-2c-9.36-18.12-21-43.24-21-43.24C270.66,355.22,259,335.38,250.74,322Z"/><path class="cls-1" d="M336.31,431.09c.18-.11-.06-.16-.64-.18C335.94,431.1,336.16,431.17,336.31,431.09Z"/><path class="cls-1" d="M322.07,407.88s-82-82.27-33.23-144.66L307,217.09l1.77-4.84c-1.09-1.91-3.19-2.87-6.85-1.65-5.7,1.9-21.74,17.39-35.89,36.9,1.12,6.41-1.21,17-6.6,27.9-5.17,10.44-11.85,18.47-17.48,21.75a43.48,43.48,0,0,0-.55,10.39s4,5.9,9.32,14.5h6.91l41.84,83.68a12.72,12.72,0,0,1-2.52,7.19c5.09,9.86,9.49,17.65,10.95,18.18,3.63,1.32,23.74-.32,27.75-.18C333.65,429.44,328.46,420.26,322.07,407.88Z"/><path class="cls-1" d="M288.84,263.22c-48.76,62.39,33.22,144.65,33.23,144.66-15.89-30.79-39.13-81.24-39.13-81.24-2.25-3-11.53-36.64,9-68.65,17.45-27.22,15.66-32.49,16-32.81.06-.05.06-.1.1-.16,1.3-1.92,2.89-9.1.78-12.77L307,217.09Z"/><path class="cls-1" d="M257.65,322h-6.91c8.3,13.34,19.92,33.18,25.19,47.63,0,0,11.68,25.12,21,43.24a12.72,12.72,0,0,0,2.52-7.19Z"/><path class="cls-1" d="M285,156.32s-6.35.38-6.74,1.28c0,0,.18,3.16.45,7.74l2,28.08a41.91,41.91,0,0,0,1,7.12s1.87.78,5.5-.12l-.07-.75C287.16,199.61,283.71,166,285,156.32Z"/><path class="cls-1" d="M278.69,165.34s-7.4,16.29,2,28.09h0c-.72-7.49-1.52-20-2-28.08Z"/><path class="cls-1" d="M280.7,193.42l-2-28.08C279.18,173.42,280,185.93,280.7,193.42Z"/><path class="cls-1" d="M288.84,270.38c-4.63,9.8-6.73,24.77-6.13,42.06s15.66,33.29,15.66,33.29l25.55-50.06-34.26-26.84Z"/><polyline class="cls-1" points="293.2 271.6 323.92 295.67 325.79 292.38 295.6 268.83"/><path class="cls-1" d="M336.37,238.18c-.46,7.94-4.77,5.61-4.77,5.61l-3.72,7.75a22.45,22.45,0,0,0,4.11,0c2.72-.19,5-4.26,5.87-6s.9-8.32,0-9.29S336.37,238.18,336.37,238.18Z"/><path class="cls-1" d="M259.45,275.4c5.39-10.88,7.72-21.49,6.6-27.9-11.34,15.62-21.46,33.81-24.08,49.65C247.6,293.87,254.28,285.84,259.45,275.4Z"/><path class="cls-1" d="M603,277.67v-.06C602.11,277.11,603,277.67,603,277.67Z"/><path class="cls-1" d="M659.36,338.59c-5,2.52-13.08-3.45-18.07-13.33-4.6-9.11-5-18.35-1.08-21.71a79.85,79.85,0,0,0-14.67-11.91c-16.47-10.31-21.34-13.3-22.58-14v.06s-.84-.56,0-.06L604.35,262,411.92,297.22s.16,22.45,6.86,27.48c0,0,46.17-15.13,77.53,50.89l2.71,3.78,17.68-2.82,141.27-30s4.4-5.17,4.4-5.95a27.59,27.59,0,0,0-1.13-3.6A5.6,5.6,0,0,1,659.36,338.59Z"/><path class="cls-1" d="M641.29,325.26c5,9.88,13.08,15.85,18.07,13.33a5.6,5.6,0,0,0,1.88-1.62,97.15,97.15,0,0,0-21-33.42C636.33,306.91,636.69,316.15,641.29,325.26Z"/></svg>