<svg id="圖層_1" data-name="圖層 1" xmlns="http://www.w3.org/2000/svg" viewBox="0 0 283.46 283.46"><defs><style>.cls-1{fill:none;stroke:#f9f9f9;stroke-miterlimit:10;stroke-width:0.5px;}</style></defs><g id="來令片"><path class="cls-1" d="M206,104.31v13.43l-2,1.82h-7.63l-1-1.16h-5.47s-7.63,13.93-9.45,15.1-12.44.66-12.44.66l-1.49,1.66S149.11,131,141.48,131s-25,4.81-25,4.81L115,134.16s-10.62.5-12.44-.66-9.45-15.1-9.45-15.1H87.58l-1,1.16H79l-2-1.82V104.31l1.49-1.83h5.47c3.16-1.49,2.66-5.64,2.66-5.64,18.72-12.6,54.89-13.54,54.89-13.54s36.17.94,54.9,13.54c0,0-.5,4.15,2.65,5.64h5.48ZM100.69,108a7.88,7.88,0,1,0,7.87-7.87A7.87,7.87,0,0,0,100.69,108Zm73.71-7.87a7.88,7.88,0,1,0,7.88,7.87A7.87,7.87,0,0,0,174.4,100.08Z"/><path class="cls-1" d="M206.5,168.65v13.44l-2,1.82h-7.63l-1-1.16h-5.47s-7.63,13.93-9.46,15.09-12.43.67-12.43.67l-1.5,1.66s-14.7-4.07-23-4.72c-.71-.06-1.38-.09-2-.09h0c-.61,0-1.28,0-2,.08-8.3.65-23,4.73-23,4.73l-1.49-1.66s-10.62.49-12.44-.67-9.46-15.09-9.46-15.09H88.08l-1,1.16H79.46l-2-1.82V168.65L79,166.83h5.47c3.15-1.49,2.66-5.64,2.66-5.64,16.08-10.83,45-13.05,52.89-13.46l2-.08h0l2,.08c7.88.42,36.8,2.65,52.87,13.46,0,0-.5,4.15,2.65,5.64H205ZM104.26,194.72c2.66,2.57,12.28,2.54,12.28,2.54,8.51-2.87,23.44-4.53,23.44-4.53v-43c-39.83,2.24-51.22,12.85-51.22,12.85C82.37,169.24,104.26,194.72,104.26,194.72Zm91-32.15S183.84,152,144,149.72v43s14.93,1.66,23.44,4.53c0,0,9.62,0,12.27-2.54C179.72,194.72,201.62,169.24,195.23,162.57Z"/></g></svg>