<?xml version="1.0" encoding="utf-8"?>
<!-- Generator: Adobe Illustrator 25.0.1, SVG Export Plug-In . SVG Version: 6.00 Build 0)  -->
<svg version="1.1" id="圖層_1" xmlns="http://www.w3.org/2000/svg" xmlns:xlink="http://www.w3.org/1999/xlink" x="0px" y="0px"
	 viewBox="0 0 283.5 283.5" style="enable-background:new 0 0 283.5 283.5;" xml:space="preserve">
<style type="text/css">
	.st0{fill:none;stroke:#F9F9F9;stroke-width:0.5;stroke-miterlimit:10;}
</style>
<g>
	<path class="st0" d="M122.3,49c0-2.6,2.1-4.7,4.7-4.7l30-0.2c2.6,0,4.7,2.1,4.7,4.7l0.7,15h-41.2L122.3,49z"/>
	<path class="st0" d="M122,63.8h39.8c0.4,0,0.7,0.3,0.7,0.7v2.8c0,0.4-0.3,0.7-0.7,0.7H122c-0.4,0-0.7-0.3-0.7-0.7v-2.8
		C121.3,64.1,121.6,63.8,122,63.8z"/>
	<path class="st0" d="M182.9,129.3c0,0,0.2-15.6,0-17.8c-0.1-1.3-0.6-2.6-1.5-3.6L160.1,68h-36.8l-21.3,40c-0.9,1-1.4,2.3-1.5,3.6
		c-0.2,2.3,0,17.8,0,17.8s-3,1.6-0.1,4.5l2.3,97.5c0,0,0.7,3.1,3.4,4c2.7,0.9,28.2,4.2,35.6,4c7.5,0.2,33-3.1,35.6-4s3.4-4,3.4-4
		l2.2-97.5C185.9,130.9,182.9,129.3,182.9,129.3z"/>
	<path class="st0" d="M178.2,108.3c-3.6-2.1-20.5-8.7-36.5-9c-15.9,0.3-32.6,6.9-36.2,9c-3.6,2.1,0,17.1,0,17.1
		c1.6,4,35.9,2.7,35.9,2.7s38.4,0.4,36.8-2.7C178.2,125.4,181.8,110.4,178.2,108.3z"/>
	<path class="st0" d="M141,110.7c-21.6,0.2-16.7,8.5-16.7,8.5h33.3C157.7,119.3,162.6,110.9,141,110.7z"/>
	<path class="st0" d="M111.3,138.3h63c0.7,0,1.3,0.6,1.3,1.3v84.2c0,0.7-0.6,1.3-1.3,1.3h-63c-0.7,0-1.3-0.6-1.3-1.3v-84.2
		C110,138.8,110.6,138.3,111.3,138.3z"/>
	<path class="st0" d="M110,178.1c0,0,14.7,0.3,18.1-0.3c3.4-0.6,6.3-10.5,10.9-10.6c4.6-0.2,36.5-0.6,36.5-0.6"/>
	<line class="st0" x1="126.8" y1="51.4" x2="126.8" y2="64.1"/>
	<line class="st0" x1="131.1" y1="51.4" x2="131.1" y2="64"/>
	<line class="st0" x1="135.4" y1="51.4" x2="135.4" y2="63.9"/>
	<line class="st0" x1="139.7" y1="51.4" x2="139.7" y2="63.9"/>
	<line class="st0" x1="144" y1="51.4" x2="144" y2="63.8"/>
	<line class="st0" x1="148.3" y1="51.4" x2="148.3" y2="63.7"/>
	<line class="st0" x1="152.6" y1="51.4" x2="152.6" y2="63.7"/>
	<line class="st0" x1="156.9" y1="51.4" x2="156.9" y2="63.6"/>
	<line class="st0" x1="175.5" y1="206.2" x2="110" y2="206.2"/>
	<line class="st0" x1="110" y1="183.1" x2="175.5" y2="183.1"/>
	<path class="st0" d="M120.9,188.3h2.8c0.8,0,1.6,0,2.5,0.2c0.6,0.1,1.1,0.3,1.6,0.6c0.9,0.6,1.7,1.4,2.2,2.4
		c0.5,1.1,0.8,2.3,0.8,3.5c0,1.3-0.3,2.6-0.9,3.8c-0.3,0.5-0.6,1.1-1,1.5c-0.4,0.4-0.8,0.8-1.4,1.1c-0.6,0.3-1.2,0.6-1.9,0.7
		c-0.4,0.1-0.8,0.1-1.2,0.1c-0.5,0-1,0-1.7,0h-3.5L120.9,188.3z M122.7,190.2l-1.2,10.1h1.6c0.9,0,1.8-0.1,2.7-0.3
		c0.7-0.2,1.2-0.7,1.7-1.3c0.9-1.1,1.3-2.5,1.2-3.9c0-0.9-0.2-1.8-0.6-2.6c-0.3-0.7-0.8-1.3-1.5-1.6c-0.9-0.4-1.8-0.5-2.7-0.5H122.7
		z"/>
	<path class="st0" d="M147.2,195c0,1.5-0.4,3-1.3,4.3c-0.7,1-1.6,1.8-2.6,2.4c-1.1,0.6-2.3,0.9-3.6,0.8c-1.9,0.1-3.8-0.7-5.1-2
		c-2.7-3-2.6-7.5,0.1-10.5c1.4-1.4,3.3-2.1,5.3-2.1c1.9-0.1,3.8,0.6,5.2,1.9C146.5,191.3,147.2,193.1,147.2,195z M145.1,195
		c0.1-1.4-0.4-2.7-1.4-3.7c-1-0.9-2.3-1.4-3.7-1.4c-1.4,0-2.8,0.5-3.9,1.5c-1,1-1.6,2.4-1.5,3.8c0,1.4,0.5,2.8,1.4,3.8
		c0.9,1,2.3,1.5,3.6,1.5c1.4,0,2.8-0.5,3.8-1.6C144.6,197.9,145.1,196.5,145.1,195L145.1,195z"/>
	<path class="st0" d="M153.6,190.2l-1.5,12.1H150l1.5-12.1h-3.3l0.2-1.9h8.6l-0.2,1.9H153.6z"/>
	<path class="st0" d="M164.7,199.7l-0.3,2.6h-2.1l0.3-2.6h-6.5l10.2-12.9l-1.4,11.1h1.3l-0.2,1.8L164.7,199.7z M162.9,197.9l0.6-4.9
		l-3.8,4.9H162.9z"/>
</g>
</svg>
