<svg id="圖層_1" data-name="圖層 1" xmlns="http://www.w3.org/2000/svg" viewBox="0 0 100 100"><defs><style>.cls-1{fill:#f9f9f9;}</style></defs><path class="cls-1" d="M59.91,50.31l-11,.52L49,50l5.79-.6,2.27-11.09s-1.36-2.82-9.18-.73L49,39.49l3-.18.09,3.82-3.82-.73L48,39.76S45,38,44.61,39.4L46,49.72l-6.86,3.41s1,1.57,6.85-.61l.3-.18a22.51,22.51,0,0,1-4.12,4.12s3.52,1,7.34-3.6l2.3,0S45.06,59.31,43.12,60c0,0,3,2.36,12.49-7.58l3.27-.06a13.5,13.5,0,0,1-5.76,7.88s-4,.3-5-.79c0,0,1.64,4.49,5.52,3.58,0,0,5.57-1.76,9.64-10.49C63.31,52.58,61.73,50.22,59.91,50.31ZM48.52,44.67l3,.91v1.55l-3,.45Z"/><path class="cls-1" d="M80.34,39.13l-.12,2s-4.67,1.15-5.28,1.63S73.88,48,73.88,48l4.28-1.52c4.06.24,1.75,4.3,1.75,4.3,1,.85,1.09,1.22.85,1.76s-7.33,4.31-7.33,4.31l-1.76-4.25c-2.67,3.46-4.79,3-4.79,3l.37-1.27C71.25,51,72,40.22,72,40.22,74.88,40.46,80.34,39.13,80.34,39.13ZM76.88,48.7l-1.06.43a6.08,6.08,0,0,0-1.42,1.15l.54,2.36a6.88,6.88,0,0,0,1.94-1.33C77.2,50.86,76.88,48.7,76.88,48.7Z"/><path class="cls-1" d="M82.61,38.26s2.64,2.19,10-.27c0,0,4.82.86-.91,2.86l0,1.14s6.41.18,0,2.91l0,.86s5.64.69,0,2.94l0,2s3.63-.81,5.63.37c0,0,1.1,9.23-5.81,11.32,0,0-2.64.09-4.37-3.32,0,0,3.27,1.5,4,.82s3.41-5.55,2.54-7.46l-2.32,0s-6.36,1.31-7.18,1.13A1.72,1.72,0,0,1,83,52.64ZM86,41.08V44s2.27-.5,2.36-1a3,3,0,0,0,0-1A8.21,8.21,0,0,0,86,41.08Zm0,3.83v2.86s2.27-.5,2.36-1a3,3,0,0,0,0-1A8.21,8.21,0,0,0,86,44.91Zm0,3.82V51.6s2.27-.5,2.36-1a3,3,0,0,0,0-1A8.53,8.53,0,0,0,86,48.73Z"/><path class="cls-1" d="M78.16,54.77S82.84,56,80.52,60a2.06,2.06,0,0,1-2.36-1.82A14.79,14.79,0,0,1,78.16,54.77Z"/><path class="cls-1" d="M81.84,53.72s4.55,1.64,2.82,4.42a1.77,1.77,0,0,1-2.19-1.57A7.72,7.72,0,0,1,81.84,53.72Z"/><path class="cls-1" d="M89.48,53S93,54.3,91.67,56.46A1.36,1.36,0,0,1,90,55.25,6.16,6.16,0,0,1,89.48,53Z"/><path class="cls-1" d="M86,53.72s3.54,1.27,2.2,3.44a1.37,1.37,0,0,1-1.7-1.22A5.89,5.89,0,0,1,86,53.72Z"/><path class="cls-1" d="M34.94,36.4c-.39-3.39-3.82-6.19-6.84-6.52C23.78,29.41,20,31,16.73,33.34h0l0,0a29.33,29.33,0,0,0-2.32,1.88h0A43.24,43.24,0,0,0,9.05,41c.18-.18,2.69-2.66,4.87-4.59,1.55-1.37,3-2.4,3-2.4h0A19.52,19.52,0,0,1,21,31.77c6.08-2.29,11.42.66,11.52,7.12A21.6,21.6,0,0,1,29.62,49.4a2.16,2.16,0,0,1-2.25,1.28c-5.21-.06-10.72,0-15.93,0-.5,0-.87-.05-1.11.13s-.38.63-.6,1.16c-.94,2.24-2.24,5-2.3,7.53-.09,4,1.8,7.31,5.35,7.37a14.75,14.75,0,0,0,7.6-2.11C26,61.24,29.71,56,32.45,50.15A24.83,24.83,0,0,0,34.94,36.4Z"/><path class="cls-1" d="M2.8,63.6c.4,3.39,3.83,6.19,6.85,6.52,4.32.47,8.06-1.07,11.36-3.46h0l0,0a27.62,27.62,0,0,0,2.32-1.88h0A44,44,0,0,0,28.7,59c-.18.18-2.7,2.66-4.88,4.59-1.54,1.37-3,2.4-3,2.4h0a19.86,19.86,0,0,1-4.14,2.26c-6.07,2.29-11.41-.66-11.51-7.12A21.6,21.6,0,0,1,8.13,50.6a2.15,2.15,0,0,1,2.25-1.28c5.21.06,10.72,0,15.92,0,.51,0,.87.05,1.11-.13s.38-.63.61-1.16c.94-2.24,2.23-5,2.29-7.53.1-4-1.79-7.31-5.34-7.37a14.81,14.81,0,0,0-7.61,2.11C11.8,38.76,8,44,5.29,49.85A24.92,24.92,0,0,0,2.8,63.6Z"/></svg>