<svg id="圖層_1" data-name="圖層 1" xmlns="http://www.w3.org/2000/svg" viewBox="0 0 100 100"><defs><style>.cls-1{fill:#f9f9f9;}</style></defs><path class="cls-1" d="M50,16.31A38,38,0,0,1,70.21,22,34,34,0,0,1,83.65,37.12a30.22,30.22,0,0,1,2.6,9.68,31.29,31.29,0,0,1-5.64,21.43,35.29,35.29,0,0,1-15.68,12.5,37.25,37.25,0,0,1-10,2.65,39.61,39.61,0,0,1-9.61,0,37.22,37.22,0,0,1-16.31-5.86,33.57,33.57,0,0,1-14-18,30.25,30.25,0,0,1-1.45-8,31.17,31.17,0,0,1,4.14-17.3,33.57,33.57,0,0,1,8.49-9.85A37.23,37.23,0,0,1,42.82,17,40.43,40.43,0,0,1,50,16.31ZM85.12,50a32.89,32.89,0,0,0-.62-5.94,30.92,30.92,0,0,0-7.64-14.89,34.6,34.6,0,0,0-10.67-7.9,37.61,37.61,0,0,0-24.72-2.68,35.77,35.77,0,0,0-15.92,8.2,32.25,32.25,0,0,0-7.35,9.5,30,30,0,0,0-3.3,13,29.37,29.37,0,0,0,.92,8.08A31.3,31.3,0,0,0,23.28,71a34.69,34.69,0,0,0,9.85,7.4,36.8,36.8,0,0,0,13.4,3.84,35.74,35.74,0,0,0,6.46,0,36.88,36.88,0,0,0,6-1A34.89,34.89,0,0,0,78.4,69,30.39,30.39,0,0,0,85.12,50Z"/><path class="cls-1" d="M50,81.51a36.56,36.56,0,0,1-18.64-5.19,31.81,31.81,0,0,1-13.7-16.17,25,25,0,0,1-1.63-7,37.81,37.81,0,0,1-.13-5,28.67,28.67,0,0,1,3.35-11.88,31.92,31.92,0,0,1,8.5-10.13,34.61,34.61,0,0,1,14.44-6.77,43,43,0,0,1,5.3-.71,32.47,32.47,0,0,1,4.41-.08,36,36,0,0,1,11.89,2.65,34,34,0,0,1,11.65,7.82,30.39,30.39,0,0,1,8,14.57,29.44,29.44,0,0,1-1.81,18.15,30.89,30.89,0,0,1-6.43,9.36,34.33,34.33,0,0,1-12.63,8A32.6,32.6,0,0,1,55,81.07C53.33,81.26,51.67,81.36,50,81.51ZM44.08,35l0,.09H54.93a4,4,0,0,1,4.12,4q0,6.15,0,12.29a2.73,2.73,0,0,1-2.78,2.75c-2.65,0-5.3,0-8,0a3,3,0,0,0-2.17.85c-.67.63-1.35,1.24-2,1.88a3.86,3.86,0,0,1-2.86,1.15c-5,0-10,0-15.07,0-.79,0-1.33.56-1.95.94,0,0-.05.09-.07.13-.26.58.12,1.1.8,1.1H42.24A5.31,5.31,0,0,0,45.71,59c.63-.51,1.21-1.09,1.81-1.64a3.06,3.06,0,0,1,2-.88q4,0,8,0a1.2,1.2,0,0,1,1.22,1.27c0,.51,0,1,0,1.55,0,.71.19.9.89.9,2.24,0,4.49,0,6.74,0A1.09,1.09,0,0,0,67.61,59c0-1.95,0-3.9,0-5.86,0-6.34,0-12.68,0-19a3.35,3.35,0,0,0-3.43-3.4q-6.63,0-13.25,0a4.77,4.77,0,0,0-3.2,1.19L45.85,33.5ZM57.9,45.23V39.11a2.78,2.78,0,0,0-2.78-2.83q-3.93,0-7.86,0a1.08,1.08,0,0,0-.65.24c-1.48,1.31-2.94,2.64-4.41,4L25.07,56a1.15,1.15,0,0,0-.28.41c-.15.39,0,.54.39.54H41.57a2.27,2.27,0,0,0,1.61-.63c.72-.69,1.46-1.36,2.18-2a4,4,0,0,1,2.9-1.17c1.06,0,2.12,0,3.18,0h4.8a1.54,1.54,0,0,0,1.66-1.67Zm10.69,15c.55,0,1.06,0,1.55,0a1.8,1.8,0,0,0,.81-.29,1.37,1.37,0,0,0,.53-1.26c0-7.14,0-14.27,0-21.4,0-1.66,0-3.33,0-5a5.08,5.08,0,0,0-4.92-4.83c-4.17,0-8.34,0-12.52,0a2.82,2.82,0,0,0-1.79.62c-.48.37-.93.78-1.38,1.18a.46.46,0,0,0-.15.35c0,.09.22.14.35.17a1.28,1.28,0,0,0,.34,0c4.36,0,8.71,0,13.06,0a4.13,4.13,0,0,1,4.14,4.18v26.3ZM32,67.89c.72,0,1.35,0,2,0,.09,0,.22-.13.26-.23.32-.8.64-1.61.93-2.42a1.42,1.42,0,0,0-.61-1.79,3.69,3.69,0,0,0-2.1-.56c-2,0-4.05,0-6.08,0a.5.5,0,0,0-.54.37c-.58,1.42-1.18,2.83-1.77,4.25,0,.11-.07.23-.12.41.67,0,1.29,0,1.91,0a.46.46,0,0,0,.53-.37c.42-1.16.88-2.31,1.33-3.46.05-.11.18-.25.27-.26.51,0,1,0,1.59,0L28,67.89c.67,0,1.23,0,1.8,0a.47.47,0,0,0,.53-.37c.42-1.15.86-2.29,1.31-3.43,0-.12.15-.27.25-.29A1.07,1.07,0,0,1,33,65.13c-.08.3-.21.59-.31.88C32.44,66.61,32.21,67.21,32,67.89Zm37.79-1.76.69-.25a3,3,0,0,0,1.37-1,1.06,1.06,0,0,0-.56-1.8,6.84,6.84,0,0,0-1.85-.32c-1.41,0-2.82,0-4.22,0a.49.49,0,0,0-.54.37c-.56,1.47-1.13,2.93-1.7,4.4,0,.09,0,.19-.1.35.38,0,.71,0,1,0s.84.12,1.09-.06.35-.65.48-1,.28-.52.66-.47a2.69,2.69,0,0,0,.85,0,1.23,1.23,0,0,1,1.21.57c.79,1,.81,1,2.09,1h.85l0-.11ZM57.14,67.94a21.66,21.66,0,0,0,2.22-.29A4.74,4.74,0,0,0,62.27,66c1.07-1.38.65-2.72-1.05-3.09a8.9,8.9,0,0,0-5.75.55,3.2,3.2,0,0,0-1.78,1.94,1.47,1.47,0,0,0,.68,1.89,2.32,2.32,0,0,0,.77.35C55.81,67.79,56.49,67.86,57.14,67.94ZM41.6,62.69v.1a7.39,7.39,0,0,0-3.16.46,3.83,3.83,0,0,0-2.15,1.68,1.64,1.64,0,0,0,.46,2.43,2.34,2.34,0,0,0,.71.3,9,9,0,0,0,5.5-.38,3.69,3.69,0,0,0,1.92-1.6A1.63,1.63,0,0,0,43.8,63,16.21,16.21,0,0,0,41.6,62.69Zm12.47.13-.12,0H46.51a.37.37,0,0,0-.26.11c-.11.25-.2.51-.32.83h2.8l-.82,2.06c-.26.67-.53,1.35-.82,2.08.67,0,1.25,0,1.82,0a.54.54,0,0,0,.62-.42c.42-1.16.88-2.29,1.31-3.44.09-.22.19-.32.44-.31.58,0,1.17,0,1.75,0,.81,0,.81,0,1-.79Z"/><path class="cls-1" d="M50.94,50.14c-.9,0-1.81,0-2.71,0a.64.64,0,0,1-.49-.23c-.05-.13.08-.39.21-.51,1.83-1.74,3.68-3.46,5.52-5.19.35-.33.69-.66,1.05-1,.11-.1.35-.21.42-.17a.65.65,0,0,1,.2.45c0,1,0,2,0,3.06,0,.63,0,1.26,0,1.9a1.54,1.54,0,0,1-1.69,1.67Z"/><path class="cls-1" d="M66,65.41c.21-.54.37-1,.57-1.49a.41.41,0,0,1,.32-.2c.62,0,1.24,0,1.86,0a1.23,1.23,0,0,1,.37.08.61.61,0,0,1,.22,1.11,2.31,2.31,0,0,1-1.1.48C67.53,65.46,66.81,65.41,66,65.41Z"/><path class="cls-1" d="M57.61,66.9h-.55a1.09,1.09,0,0,1-1-1.59,2.52,2.52,0,0,1,2.2-1.59,6.42,6.42,0,0,1,1.16,0,1.06,1.06,0,0,1,1,1.5,2.52,2.52,0,0,1-2.19,1.67,4.14,4.14,0,0,1-.61,0Z"/><path class="cls-1" d="M41.19,63.68a5,5,0,0,1,.88.11,1,1,0,0,1,.75,1.31,2.48,2.48,0,0,1-2.11,1.78,6.93,6.93,0,0,1-1.51,0,1,1,0,0,1-.86-1.35,2.56,2.56,0,0,1,2.31-1.81h.54Z"/></svg>