<svg id="圖層_1" data-name="圖層 1" xmlns="http://www.w3.org/2000/svg" viewBox="0 0 100 100"><defs><style>.cls-1{fill:#f9f9f9;}</style></defs><path class="cls-1" d="M54.13,65.36H44.19V62.5h6.24v-7H44.19v-3H69.92v2.89H63.5v7H66V59.93c1.11,0,2.13,0,3.14,0,.19,0,.5.39.51.6,0,1.56,0,3.12,0,4.77H59.79V60.55c0-1.42,0-2.84,0-4.25,0-.66-.22-.88-.86-.86-1.27,0-2.55.05-3.82,0-.73,0-1,.19-1,1,0,2.59,0,5.18,0,7.76Z"/><path class="cls-1" d="M44.16,50.23V47.41H70v2.82Z"/><path class="cls-1" d="M71.66,51.3V48.35c.3,0,.53-.08.76-.08,2.87,0,5.74,0,8.6,0,.81,0,1,.25,1,1,0,2.07,0,2.07-2,2.07H72.75C72.41,51.35,72.06,51.32,71.66,51.3Z"/><path class="cls-1" d="M71.69,56.67V53.6H82c0,.85,0,1.68,0,2.51a.8.8,0,0,1-.59.53C78.2,56.68,75,56.67,71.69,56.67Z"/><path class="cls-1" d="M98.33,53.61v3H88.06v-3Z"/><path class="cls-1" d="M98.32,62c-3.34,0-6.55,0-9.76,0a.74.74,0,0,1-.54-.46c0-.84,0-1.68,0-2.56H98.32Z"/><path class="cls-1" d="M98.37,51.3H88c0-.86,0-1.67,0-2.46a.91.91,0,0,1,.67-.55c3,0,6,0,9,0,.23,0,.62.41.65.66A19.9,19.9,0,0,1,98.37,51.3Z"/><path class="cls-1" d="M71.62,58.86c3.34,0,6.55,0,9.76,0a.9.9,0,0,1,.61.6,5.66,5.66,0,0,1,0,1.79c0,.26-.43.65-.67.65-3,0-5.94,0-8.91,0-.59,0-.82-.24-.8-.83S71.62,59.73,71.62,58.86Z"/><path class="cls-1" d="M86.8,59.5v5.87H83.14c0-1.4-.09-2.74,0-4.07s.73-1.75,2-1.8C85.69,59.48,86.18,59.5,86.8,59.5Z"/><path class="cls-1" d="M83.11,47.31c1.16,0,2.18,0,3.2,0a.92.92,0,0,1,.58.63,29.06,29.06,0,0,1-.1,3.49,1.58,1.58,0,0,1-1.59,1.4c-2.09.26-2.09.27-2.09-1.79Z"/><path class="cls-1" d="M86.92,58.75H83.13c0-1.55,0-3.09,0-4.64,0-.13.25-.28.4-.39s.21,0,.32,0c3-.25,3-.25,3,2.81Z"/><path class="cls-1" d="M1.88,47.57l4.82,2.7c1.66.93,3.34,1.84,5,2.83a1.61,1.61,0,0,1,.72,1.11c.06,3.79,0,7.58.06,11.37a2,2,0,0,1-.08.4C6,64,.29,55.6,1.88,47.57Z"/><path class="cls-1" d="M5.72,38.93a15.16,15.16,0,0,1,8.33-5.2l-1.36.88L19.15,41l6.41-6.51-.55-.8a13.45,13.45,0,0,1,5.57,3.1c2.69,2.51,2.63,1.78,0,4-3.36,2.9-7.19,4.71-11.77,4.54-4.39-.16-8-2.11-11.28-4.82C6.94,40.09,6.39,39.55,5.72,38.93Z"/><path class="cls-1" d="M12.56,53.37,1.81,47.45S-.75,59.94,12.39,66.27Z"/><path class="cls-1" d="M36.65,47.45,25.9,53.37l.17,12.9C39.2,59.94,36.65,47.45,36.65,47.45Z"/></svg>