<svg id="圖層_1" data-name="圖層 1" xmlns="http://www.w3.org/2000/svg" viewBox="0 0 100 100"><defs><style>.cls-1{fill:#f9f9f9;}</style></defs><path class="cls-1" d="M50,30.52q14.39,0,28.76,0a19.55,19.55,0,0,1,19.4,16.23A19.43,19.43,0,0,1,86.51,68a18.41,18.41,0,0,1-7.28,1.52q-29.21,0-58.42,0a19.48,19.48,0,0,1,.4-39Q35.61,30.54,50,30.52Zm0,5.59q-14.37,0-28.72,0a16.54,16.54,0,0,0-3.07.28,13.89,13.89,0,0,0,3,27.49q28.78,0,57.57,0a15.78,15.78,0,0,0,3.14-.32,13.87,13.87,0,0,0,9.17-20.35,13.46,13.46,0,0,0-12.24-7.09C69.24,36.08,59.62,36.11,50,36.11Z"/><path class="cls-1" d="M18.22,61.23H13.06a4.11,4.11,0,0,1,.1-.41c1.08-3.36,2.17-6.72,3.24-10.08a.51.51,0,0,1,.58-.42c1.45,0,2.91,0,4.36,0l.45,0-1,3h4.81l-1-3a2.26,2.26,0,0,1,.33,0h4.58a.38.38,0,0,1,.43.32Q31.58,55.83,33.26,61c0,.07,0,.13.06.24H28.4c-.26,0-.38-.07-.45-.33-.19-.69-.43-1.36-.62-2.05a.41.41,0,0,0-.47-.34H19.49a.44.44,0,0,0-.49.37C18.75,59.68,18.48,60.45,18.22,61.23Z"/><path class="cls-1" d="M34.34,50.36H48.86l0,.07c-.28.18-.55.38-.85.54s-.59.27-.94.42l4.51,9.85c-1.72,0-3.38,0-5,0-.13,0-.3-.2-.37-.35-1-2.1-1.93-4.21-2.89-6.31-.38-.83-.76-1.64-1.12-2.47a.48.48,0,0,0-.52-.35c-.68,0-1.36,0-2.08,0v9.45H34.34Z"/><path class="cls-1" d="M71.29,50.36h6.1c.09.7.15,1.38.27,2a6.21,6.21,0,0,0,1.24,2.84,1.92,1.92,0,0,0,2.21.87,2.56,2.56,0,0,0,1.2-.87,18.91,18.91,0,0,0,1.11-2.09c.07-.12.22-.3.34-.3,1.81,0,3.62,0,5.43,0l.12,0c-.5,3.2-2.9,7.51-7.14,8.46A7.56,7.56,0,0,1,75,59.23a11.59,11.59,0,0,1-3.49-6.88C71.4,51.71,71.36,51.05,71.29,50.36Z"/><path class="cls-1" d="M64.84,61.22h-5.2V50.36h5.2Z"/><path class="cls-1" d="M53.51,40.78V39.13H70.92v1.65Z"/><path class="cls-1" d="M53.49,43c0-.47,0-.92,0-1.37,0-.09.16-.2.27-.25a.9.9,0,0,1,.33,0H70.93V43Z"/><path class="cls-1" d="M53.49,45.23c0-.47,0-.92,0-1.37,0-.09.14-.2.24-.25a.9.9,0,0,1,.33,0H70.42c.54,0,.54,0,.54.54v1.09Z"/><path class="cls-1" d="M34.34,49.76V48.09H50.66a4.79,4.79,0,0,1-1,1.64c0,.05-.18.05-.27.05H34.56Z"/><path class="cls-1" d="M50.87,43H34.34V41.41l.48,0H49.39a.71.71,0,0,1,.71.37C50.33,42.15,50.58,42.55,50.87,43Z"/><path class="cls-1" d="M34.35,39.1H45a5.81,5.81,0,0,1,4.16,1.68H34.35Z"/><path class="cls-1" d="M88.72,45.27h-.48c-1.77,0-3.54,0-5.31,0a.65.65,0,0,1-.66-.29.73.73,0,0,0-.17-.18,1.85,1.85,0,0,0-2.94,0,1.23,1.23,0,0,1-1,.44c-1.94,0-3.87,0-5.92,0,.27-.56.5-1.07.77-1.54.06-.1.29-.12.44-.12h6.14c2.64,0,5.29,0,7.94,0a.66.66,0,0,1,.72.46C88.35,44.44,88.53,44.82,88.72,45.27Z"/><path class="cls-1" d="M87.64,43H73.31c.45-.56.83-1.05,1.23-1.52a.59.59,0,0,1,.37-.12H86a.64.64,0,0,1,.43.17C86.84,42,87.2,42.47,87.64,43Z"/><path class="cls-1" d="M28.88,47.49H27.12c-1,0-2.06,0-3.09,0a.47.47,0,0,1-.56-.42c-.07-.29-.19-.57-.32-1-.16.45-.25.79-.4,1.12a.48.48,0,0,1-.32.26H17.57a.85.85,0,0,1-.15,0c.17-.48.32-1,.52-1.43a.57.57,0,0,1,.43-.18c1.88,0,3.76,0,5.64,0h4c.28,0,.41.08.48.36S28.74,47,28.88,47.49Z"/><path class="cls-1" d="M18.2,45.24c.15-.5.26-1,.44-1.41a.56.56,0,0,1,.44-.22h7.41c1.16,0,1.16,0,1.51,1.13,0,.16.09.32.14.51Z"/><path class="cls-1" d="M85.58,40.79H75.3A7.54,7.54,0,0,1,85.58,40.79Z"/><path class="cls-1" d="M18.92,43c.15-.49.28-1,.45-1.42a.42.42,0,0,1,.33-.21h7a.42.42,0,0,1,.32.16c.17.48.3,1,.46,1.47Z"/><path class="cls-1" d="M19.64,40.79c.15-.52.28-1,.45-1.48a.38.38,0,0,1,.29-.2h5.55a.36.36,0,0,1,.27.17c.18.49.33,1,.5,1.51Z"/><path class="cls-1" d="M77.6,48.09l-.19,1.66H71.32l.17-1.66Z"/><path class="cls-1" d="M78.32,45.89c-.17.48-.34,1-.53,1.45,0,.07-.16.14-.25.14h-6c.14-.53.26-1,.41-1.49a.3.3,0,0,1,.24-.16l6,0A.05.05,0,0,1,78.32,45.89Z"/><path class="cls-1" d="M16.69,49.78c.18-.55.34-1.05.52-1.55a.37.37,0,0,1,.29-.16h4.89s.05,0,.11,0c-.16.5-.32,1-.5,1.5a.3.3,0,0,1-.25.15Z"/><path class="cls-1" d="M59.63,49.75V48.1h5.21v1.65Z"/><path class="cls-1" d="M23.85,48.07c1.72,0,3.38,0,5,0a.32.32,0,0,1,.25.19c.16.48.3,1,.45,1.48l-.3,0H24.76c-.27,0-.4-.08-.47-.33C24.17,49,24,48.57,23.85,48.07Z"/><path class="cls-1" d="M34.33,45.23V43.64h5.22v1.59Z"/><path class="cls-1" d="M34.33,47.47v-1.6h5.22v1.6Z"/><path class="cls-1" d="M59.63,47.46V45.87h5.22v1.59Z"/><path class="cls-1" d="M51.32,45.93c-.12.46-.24.94-.38,1.42,0,.07-.17.13-.25.13H45.51A2.53,2.53,0,0,0,46.73,46a.31.31,0,0,1,.25-.15h4.19S51.22,45.88,51.32,45.93Z"/><path class="cls-1" d="M46.06,43.6h4.41c.6,0,.61,0,.71.57.06.35.09.7.13,1.07H46.87Z"/></svg>